<svg xmlns="http://www.w3.org/2000/svg" width="1510" height="1064" viewBox="0 0 1510 1064" fill="none">
<path id="Vector" d="M274.736 879.06C316.381 989.129 423.339 1064 542.881 1064C626.47 1064 704.667 1027.91 758.895 966.161C811.925 1016.27 881.732 1044.31 955.734 1044.31C1072.58 1044.31 1177.14 973.022 1220.58 867.427C1243.65 875.481 1267.92 879.359 1292.19 879.359C1412.33 879.359 1510 782.116 1510 662.502C1510 571.822 1453.38 491.582 1369.79 459.963C1361.7 309.923 1236.46 190.011 1083.66 190.011C1059.1 190.011 1034.53 193.292 1010.56 199.556C944.05 77.5555 815.22 0 674.706 0C489.551 0 333.159 130.949 299.603 309.028C295.109 309.028 290.615 308.73 286.421 308.73C128.53 308.73 0 436.697 0 593.895C0 751.094 122.238 872.796 275.036 878.762L274.736 879.06Z" fill="var(--fill-0, white)"/>
</svg>
