<svg width="1510" height="1064" viewBox="0 0 1510 1064" fill="none"
    xmlns="http://www.w3.org/2000/svg">
    <path
        d="M274.736 184.94C316.381 74.8706 423.339 -1.30035e-05 542.881 -1.30035e-05C626.47 -1.30035e-05 704.667 36.093 758.895 97.839C811.925 47.7263 881.732 19.6872 955.734 19.6872C1072.58 19.6872 1177.14 90.9782 1220.58 196.573C1243.65 188.519 1267.92 184.641 1292.19 184.641C1412.33 184.641 1510 281.884 1510 401.498C1510 492.178 1453.38 572.418 1369.79 604.037C1361.7 754.077 1236.46 873.989 1083.66 873.989C1059.1 873.989 1034.53 870.708 1010.56 864.444C944.05 986.445 815.22 1064 674.706 1064C489.551 1064 333.159 933.051 299.603 754.972C295.109 754.972 290.615 755.27 286.421 755.27C128.53 755.27 0 627.303 0 470.105C0 312.906 122.238 191.204 275.036 185.238L274.736 184.94Z"
        fill="white" />
</svg>
