<svg xmlns="http://www.w3.org/2000/svg" width="770" height="529" viewBox="0 0 770 529" fill="none">
  <path d="M690.203 231.413C690.203 229.618 690.203 227.972 690.203 226.327C690.203 167.389 643.151 119.222 584.71 116.978C566.428 48.4665 504.091 0 432.014 0C359.937 0 303.444 43.9788 282.165 107.554C264.633 96.185 244.104 90.052 222.675 90.052C165.133 90.052 117.781 134.629 113.435 191.024C49.7498 198.354 0 252.505 0 318.024C0 388.48 57.3921 445.922 128.121 445.922C141.457 445.922 154.344 443.827 166.931 439.938C197.501 493.939 255.342 528.195 317.979 528.195C365.181 528.195 409.836 509.197 442.353 475.69C463.632 490.499 488.956 498.427 515.18 498.427C559.535 498.427 599.694 476.138 623.071 439.34C634.909 443.678 647.346 445.772 660.233 445.772C720.622 445.772 769.773 396.707 769.773 336.423C769.773 287.358 736.357 244.427 690.053 231.263L690.203 231.413Z" fill="#5495D6" />
</svg>
