<svg xmlns="http://www.w3.org/2000/svg" width="808" height="521" viewBox="0 0 808 521" fill="none">
  <path d="M686.013 182.239C686.013 182.239 686.013 180.975 686.013 180.343C686.013 121.229 637.794 73.0222 578.313 73.0222C565.623 73.0222 553.093 75.2349 541.197 79.6605C511.218 30.1888 458.082 0 399.235 0C345.306 0 295.818 25.4471 264.571 68.7546C255.688 66.858 246.647 65.9096 237.448 65.9096C171.305 65.9096 116.265 114.433 107.224 178.446C44.4121 193.935 0 249.571 0 315.165C0 392.929 63.446 456.151 141.485 456.151C164.643 456.151 187.166 450.619 207.469 439.871C234.117 470.06 272.819 487.763 313.583 487.763C338.962 487.763 363.389 481.124 385.119 468.322C417.001 501.355 460.778 520.006 507.253 520.006C560.548 520.006 610.353 495.191 642.394 453.306C651.593 455.203 660.793 456.151 669.992 456.151C746.128 456.151 807.988 394.509 807.988 318.642C807.988 248.149 754.535 189.984 685.854 182.081L686.013 182.239Z" fill="#5495D6" />
</svg>
