<svg xmlns="http://www.w3.org/2000/svg" width="737" height="521" viewBox="0 0 737 521" fill="none">
  <path d="M134.096 429.621C154.422 483.415 206.628 520.006 264.975 520.006C305.774 520.006 343.941 502.366 370.409 472.189C396.293 496.681 430.365 510.384 466.485 510.384C523.516 510.384 574.551 475.542 595.755 423.935C607.015 427.872 618.86 429.767 630.705 429.767C689.344 429.767 737.016 382.242 737.016 323.783C737.016 279.465 709.378 240.249 668.579 224.797C664.631 151.468 603.505 92.8634 528.926 92.8634C516.935 92.8634 504.944 94.4671 493.245 97.5285C460.782 37.9035 397.901 0 329.318 0C238.945 0 162.612 63.9985 146.233 151.031C144.04 151.031 141.846 150.885 139.799 150.885C62.7341 150.885 0 213.426 0 290.253C0 367.08 59.6632 426.559 134.242 429.475L134.096 429.621Z" fill="#5495D6" />
</svg>
