<svg xmlns="http://www.w3.org/2000/svg" width="698" height="488" viewBox="0 0 698 488" fill="none">
  <path d="M630.475 188.092C626.628 125.759 574.558 76.2757 510.947 76.2757C494.048 76.2757 477.424 79.8298 461.899 86.8012C432.224 33.627 375.482 0 313.795 0C242.628 0 178.88 44.9726 154.699 110.723C71.7166 100.061 0 165.127 0 246.187C0 317.679 55.5049 376.457 126.26 382.335C139.587 439.884 191.657 482.122 251.97 482.122C285.905 482.122 317.917 468.999 341.96 445.761C371.635 472.69 410.654 488 451.046 488C518.641 488 579.641 445.215 602.997 382.745C656.029 380.011 698.345 336.269 698.345 282.821C698.345 239.352 670.867 201.898 630.475 188.229V188.092Z" fill="#80BFFF" />
</svg>
