<svg xmlns="http://www.w3.org/2000/svg" width="611" height="432" viewBox="0 0 611 432" fill="none">
  <path d="M111.131 356.103C127.977 400.691 171.242 431.021 219.597 431.021C253.409 431.021 285.04 416.4 306.975 391.387C328.426 411.687 356.663 423.046 386.597 423.046C433.861 423.046 476.157 394.166 493.729 351.39C503.061 354.653 512.877 356.224 522.694 356.224C571.291 356.224 610.799 316.831 610.799 268.376C610.799 231.642 587.894 199.137 554.082 186.329C550.81 125.548 500.152 76.9723 438.345 76.9723C428.408 76.9723 418.47 78.3015 408.775 80.8391C381.871 31.4173 329.759 0 272.92 0C198.025 0 134.764 53.0469 121.19 125.186C119.372 125.186 117.555 125.065 115.858 125.065C51.9906 125.065 0 176.903 0 240.584C0 304.264 49.4456 353.565 111.253 355.982L111.131 356.103Z" fill="#1C2D38" />
</svg>
