<svg width="95" height="95" viewBox="0 0 95 95" fill="none" xmlns="http://www.w3.org/2000/svg">
<mask id="mask0_5451_1632" style="mask-type:luminance" maskUnits="userSpaceOnUse" x="9" y="23" width="8" height="2">
<path d="M16.5956 24.3013L9.50602 23.4281C9.52427 23.4304 9.54253 23.4327 9.56079 23.4351L16.6504 24.3083C16.6321 24.306 16.6139 24.3029 16.5956 24.3013Z" fill="white"/>
</mask>
<g mask="url(#mask0_5451_1632)">
<path d="M9.56299 23.4359L16.6526 24.3091C16.6343 24.3068 16.6161 24.3037 16.5978 24.3022L9.50821 23.429C9.52647 23.4313 9.54473 23.4336 9.56299 23.4359Z" fill="#858688"/>
</g>
<mask id="mask1_5451_1632" style="mask-type:luminance" maskUnits="userSpaceOnUse" x="9" y="23" width="9" height="2">
<path d="M10.7956 24.0166L17.8853 24.8899C17.5259 24.5666 17.0952 24.3747 16.6446 24.309L9.55499 23.4358C10.0056 23.5015 10.4363 23.6933 10.7956 24.0166Z" fill="white"/>
</mask>
<g mask="url(#mask1_5451_1632)">
<path d="M10.7959 24.0168L17.8855 24.89C17.5262 24.5667 17.0955 24.3749 16.6448 24.3091L9.55524 23.4359C10.0059 23.5017 10.4366 23.6935 10.7959 24.0168Z" fill="#858688"/>
</g>
<path d="M5.47361 62.8172L12.564 63.6904L17.4304 33.876L10.3408 33.0028L5.47361 62.8172Z" fill="#7D7E80"/>
<mask id="mask2_5451_1632" style="mask-type:luminance" maskUnits="userSpaceOnUse" x="5" y="62" width="9" height="5">
<path d="M6.40185 65.3902L13.4915 66.2634C12.7985 65.698 12.3969 64.7103 12.5637 63.691L5.47405 62.8177C5.30724 63.8379 5.70891 64.8248 6.40185 65.3902Z" fill="white"/>
</mask>
<g mask="url(#mask2_5451_1632)">
<path d="M6.4021 65.39L13.4917 66.2632C13.3938 66.1835 13.3017 66.0946 13.2162 65.9987L6.12657 65.1255C6.21205 65.2214 6.30417 65.3096 6.4021 65.39Z" fill="#858688"/>
<path d="M6.1267 65.1265L13.2163 65.9997C12.6968 65.418 12.4213 64.5665 12.564 63.691L5.47442 62.8177C5.33168 63.6933 5.6072 64.5448 6.1267 65.1265Z" fill="#808183"/>
</g>
<mask id="mask3_5451_1632" style="mask-type:luminance" maskUnits="userSpaceOnUse" x="10" y="31" width="9" height="3">
<path d="M18.9424 32.7045L11.8528 31.8313C11.1009 31.7385 10.4769 32.2227 10.3491 33.0038L17.4387 33.877C17.5665 33.0966 18.1905 32.6125 18.9424 32.7045Z" fill="white"/>
</mask>
<g mask="url(#mask3_5451_1632)">
<path d="M10.3498 33.003L17.4394 33.8762C17.5672 33.0958 18.1913 32.6116 18.9431 32.7036L11.8535 31.8304C11.1016 31.7376 10.4776 32.2218 10.3498 33.003Z" fill="#808183"/>
</g>
<mask id="mask4_5451_1632" style="mask-type:luminance" maskUnits="userSpaceOnUse" x="14" y="57" width="9" height="2">
<path d="M14.2059 57.3659L21.2955 58.2391C21.8159 58.3033 22.3478 58.2646 22.7976 58.1115L15.708 57.2383C15.259 57.3922 14.7271 57.4301 14.2059 57.3659Z" fill="white"/>
</mask>
<g mask="url(#mask4_5451_1632)">
<path d="M14.2045 57.3659L21.2941 58.2391C21.8144 58.3033 22.3464 58.2646 22.7961 58.1115L15.7065 57.2383C15.2576 57.3922 14.7256 57.4301 14.2045 57.3659Z" fill="#50B503" fill-opacity="0.7"/>
</g>
<mask id="mask5_5451_1632" style="mask-type:luminance" maskUnits="userSpaceOnUse" x="21" y="17" width="9" height="4">
<path d="M22.2737 19.7805L29.3633 20.6537C28.76 20.2167 28.6903 19.2778 29.111 18.7596L22.0214 17.8864C21.6007 18.4046 21.6712 19.3435 22.2737 19.7805Z" fill="white"/>
</mask>
<g mask="url(#mask5_5451_1632)">
<path d="M22.2734 19.7804L29.363 20.6536C29.2942 20.6041 29.2319 20.5476 29.1771 20.4858L22.0875 19.6125C22.1423 19.6744 22.2046 19.7309 22.2734 19.7804Z" fill="#858688"/>
<path d="M22.0857 19.6127L29.1753 20.4859C28.7487 20.0079 28.7355 19.219 29.1089 18.7596L22.0193 17.8864C21.6467 18.3458 21.6591 19.1347 22.0857 19.6127Z" fill="#808183"/>
</g>
<path d="M17.7695 50.8073L24.8599 51.6805L25.8035 45.8991L18.713 45.0259L17.7695 50.8073Z" fill="#466420"/>
<mask id="mask6_5451_1632" style="mask-type:luminance" maskUnits="userSpaceOnUse" x="22" y="17" width="8" height="2">
<path d="M22.0179 17.8869L29.1075 18.7601C29.2553 18.549 29.4926 18.4685 29.749 18.2729L22.6594 17.3997C22.403 17.5946 22.1656 17.6758 22.0179 17.8869Z" fill="white"/>
</mask>
<g mask="url(#mask6_5451_1632)">
<path d="M22.0172 17.8869L29.1068 18.7601C29.2545 18.549 29.4919 18.4685 29.7483 18.2729L22.6587 17.3997C22.4023 17.5946 22.1649 17.6758 22.0172 17.8869Z" fill="#808183"/>
</g>
<mask id="mask7_5451_1632" style="mask-type:luminance" maskUnits="userSpaceOnUse" x="16" y="42" width="10" height="4">
<path d="M23.6453 42.9146L16.5557 42.0414C16.5757 42.0437 16.5956 42.0468 16.6163 42.0491C18.0429 42.2572 18.9549 43.5519 18.7142 45.0253L25.8038 45.8985C26.0445 44.4251 25.1325 43.1312 23.7059 42.9223C23.686 42.9192 23.6661 42.9169 23.6453 42.9146Z" fill="white"/>
</mask>
<g mask="url(#mask7_5451_1632)">
<path d="M18.7157 45.0255L25.8053 45.8987C25.943 45.0564 25.7032 44.2722 25.207 43.7168L18.1173 42.8436C18.6144 43.3997 18.8534 44.1832 18.7157 45.0255Z" fill="#476621"/>
<path d="M18.1194 42.8433L25.209 43.7165C24.8372 43.3004 24.3202 43.0119 23.7094 42.9222C23.6895 42.9191 23.6696 42.9168 23.6488 42.9145L16.5592 42.0413C16.5791 42.0436 16.5991 42.0467 16.6198 42.049C17.2306 42.1379 17.7476 42.4264 18.1194 42.8433Z" fill="#4A6A22"/>
</g>
<path d="M27.142 37.4298L34.2324 38.303L17.8914 24.8901L10.801 24.0168L27.142 37.4298Z" fill="#87888A"/>
<mask id="mask8_5451_1632" style="mask-type:luminance" maskUnits="userSpaceOnUse" x="25" y="41" width="10" height="2">
<path d="M25.1644 42.0201L32.254 42.8933C33.0656 42.9931 33.9063 42.6791 34.5337 41.9458L27.4441 41.0726C26.8167 41.8058 25.976 42.1199 25.1644 42.0201Z" fill="white"/>
</mask>
<g mask="url(#mask8_5451_1632)">
<path d="M25.1642 42.0201L32.2538 42.8933C33.0654 42.9931 33.9061 42.6791 34.5334 41.9458L27.4438 41.0726C26.8165 41.8058 25.9758 42.1199 25.1642 42.0201Z" fill="#808183"/>
</g>
<mask id="mask9_5451_1632" style="mask-type:luminance" maskUnits="userSpaceOnUse" x="27" y="37" width="9" height="5">
<path d="M27.4476 41.0727L34.5372 41.9459C35.397 40.795 35.3281 39.16 34.2318 38.303L27.1422 37.4298C28.2385 38.2868 28.3074 39.9218 27.4476 41.0727Z" fill="white"/>
</mask>
<g mask="url(#mask9_5451_1632)">
<path d="M27.4476 41.0726L34.5372 41.9458C35.3115 40.9094 35.3331 39.4801 34.5289 38.5806L27.4393 37.7074C28.2435 38.6069 28.2227 40.0362 27.4476 41.0726Z" fill="#808183"/>
<path d="M27.4402 37.7074L34.5298 38.5806C34.441 38.4816 34.3422 38.388 34.2335 38.3029L27.1439 37.4297C27.2526 37.5148 27.3514 37.6076 27.4402 37.7074Z" fill="#858688"/>
</g>
<mask id="mask10_5451_1632" style="mask-type:luminance" maskUnits="userSpaceOnUse" x="24" y="65" width="8" height="3">
<path d="M24.9065 66.9383L31.9961 67.8115C31.3936 67.3753 31.3222 66.4364 31.8525 65.9336L24.7629 65.0604C24.2326 65.5639 24.304 66.5029 24.9065 66.9383Z" fill="white"/>
</mask>
<g mask="url(#mask10_5451_1632)">
<path d="M24.907 66.9383L31.9966 67.8115C31.9285 67.762 31.8663 67.7063 31.8124 67.6444L24.7227 66.7712C24.7775 66.8323 24.8389 66.888 24.907 66.9383Z" fill="#398211"/>
<path d="M24.7244 66.772L31.814 67.6452C31.3874 67.168 31.3858 66.3799 31.8555 65.9336L24.7659 65.0604C24.2962 65.5067 24.2986 66.2948 24.7244 66.772Z" fill="#398211"/>
</g>
<mask id="mask11_5451_1632" style="mask-type:luminance" maskUnits="userSpaceOnUse" x="24" y="64" width="9" height="2">
<path d="M24.7661 65.0604L31.8557 65.9336C32.0026 65.7232 32.2416 65.642 32.3694 65.5453L25.2798 64.6721C25.152 64.7688 24.913 64.85 24.7661 65.0604Z" fill="white"/>
</mask>
<g mask="url(#mask11_5451_1632)">
<path d="M24.7666 65.0604L31.8562 65.9336C32.0031 65.7232 32.2421 65.642 32.3699 65.5453L25.2803 64.6721C25.1525 64.7688 24.9135 64.85 24.7666 65.0604Z" fill="#398211"/>
</g>
<path d="M27.4814 69.0563L34.571 69.9295L31.9968 67.8118L24.9063 66.9386L27.4814 69.0563Z" fill="#398211"/>
<path d="M33.6643 29.1045L40.7539 29.9777L29.3606 20.654L22.2701 19.7808L33.6643 29.1045Z" fill="#87888A"/>
<mask id="mask12_5451_1632" style="mask-type:luminance" maskUnits="userSpaceOnUse" x="25" y="72" width="10" height="3">
<path d="M25.4672 73.6146L32.5568 74.4879C33.4182 74.5938 34.3169 74.262 34.8779 73.5713L27.7883 72.6981C27.2273 73.388 26.3286 73.7206 25.4672 73.6146Z" fill="white"/>
</mask>
<g mask="url(#mask12_5451_1632)">
<path d="M25.4684 73.6148L32.558 74.488C33.4194 74.5939 34.3182 74.2621 34.8792 73.5714L27.7895 72.6982C27.2286 73.3881 26.3298 73.7207 25.4684 73.6148Z" fill="#398211"/>
</g>
<mask id="mask13_5451_1632" style="mask-type:luminance" maskUnits="userSpaceOnUse" x="31" y="32" width="11" height="3">
<path d="M31.6996 33.6945L38.7892 34.5677C39.6008 34.6675 40.4415 34.3535 41.0688 33.6203L33.9792 32.7471C33.3519 33.4803 32.5112 33.7943 31.6996 33.6945Z" fill="white"/>
</mask>
<g mask="url(#mask13_5451_1632)">
<path d="M31.6998 33.6944L38.7894 34.5676C39.601 34.6674 40.4417 34.3534 41.0691 33.6202L33.9795 32.7469C33.3521 33.4802 32.5114 33.7942 31.6998 33.6944Z" fill="#808183"/>
</g>
<mask id="mask14_5451_1632" style="mask-type:luminance" maskUnits="userSpaceOnUse" x="27" y="69" width="9" height="5">
<path d="M27.7903 72.698L34.8799 73.5712C35.7421 72.4219 35.5612 70.7698 34.5762 69.9291L27.4866 69.0559C28.4724 69.8966 28.6525 71.5487 27.7903 72.698Z" fill="white"/>
</mask>
<g mask="url(#mask14_5451_1632)">
<path d="M27.7908 72.698L34.8804 73.5712C35.6746 72.5123 35.5841 71.0266 34.7933 70.1418L27.7037 69.2686C28.4937 70.1534 28.585 71.6391 27.7908 72.698Z" fill="#398211"/>
<path d="M27.7043 69.2686L34.7939 70.1418C34.7267 70.0668 34.6545 69.9956 34.5765 69.9291L27.4869 69.0559C27.5641 69.1217 27.6371 69.1928 27.7043 69.2686Z" fill="#398211"/>
</g>
<mask id="mask15_5451_1632" style="mask-type:luminance" maskUnits="userSpaceOnUse" x="34" y="23" width="10" height="2">
<path d="M34.6919 23.2748L41.7815 24.148C42.2047 24.1999 42.6537 24.1364 43.0894 23.9353L35.9998 23.0621C35.5641 23.2632 35.1151 23.3266 34.6919 23.2748Z" fill="white"/>
</mask>
<g mask="url(#mask15_5451_1632)">
<path d="M34.6924 23.2751L41.782 24.1483C42.2052 24.2001 42.6542 24.1367 43.0898 23.9356L36.0002 23.0624C35.5646 23.2635 35.1156 23.3269 34.6924 23.2751Z" fill="#476621"/>
</g>
<mask id="mask16_5451_1632" style="mask-type:luminance" maskUnits="userSpaceOnUse" x="33" y="29" width="9" height="5">
<path d="M33.9713 32.747L41.0609 33.6202C41.9207 32.4693 41.8518 30.8343 40.7555 29.9773L33.6659 29.1041C34.7622 29.9611 34.831 31.5961 33.9713 32.747Z" fill="white"/>
</mask>
<g mask="url(#mask16_5451_1632)">
<path d="M33.9715 32.7473L41.0612 33.6205C41.8354 32.5841 41.857 31.1548 41.0529 30.2553L33.9633 29.3821C34.7674 30.2816 34.7466 31.7109 33.9715 32.7473Z" fill="#808183"/>
<path d="M33.9612 29.3819L41.0508 30.2551C40.962 30.1561 40.8632 30.0625 40.7545 29.9775L33.6649 29.1042C33.7736 29.1893 33.8724 29.2821 33.9612 29.3819Z" fill="#858688"/>
</g>
<path d="M28.8825 83.8784L35.9729 84.7516L13.4958 66.2626L6.40536 65.3894L28.8825 83.8784Z" fill="#87888A"/>
<mask id="mask17_5451_1632" style="mask-type:luminance" maskUnits="userSpaceOnUse" x="28" y="83" width="9" height="3">
<path d="M29.5361 84.205L36.6257 85.0783C36.6141 85.0767 36.6025 85.0752 36.5909 85.0736C36.3701 85.0411 36.1701 84.8965 35.9693 84.7519L28.8797 83.8787C29.0805 84.0233 29.2814 84.1687 29.5013 84.2004C29.5129 84.202 29.5245 84.2035 29.5361 84.205Z" fill="white"/>
</mask>
<g mask="url(#mask17_5451_1632)">
<path d="M29.5364 84.205L36.626 85.0783C36.6144 85.0767 36.6027 85.0752 36.5911 85.0736C36.3704 85.0411 36.1704 84.8965 35.9695 84.7519L28.8799 83.8787C29.0808 84.0233 29.2816 84.1687 29.5015 84.2004C29.5131 84.202 29.5247 84.2035 29.5364 84.205Z" fill="#858688"/>
</g>
<path d="M36.0023 23.0617L43.0919 23.9349L46.2222 22.651L39.1326 21.7778L36.0023 23.0617Z" fill="#456220"/>
<mask id="mask18_5451_1632" style="mask-type:luminance" maskUnits="userSpaceOnUse" x="39" y="21" width="8" height="2">
<path d="M46.8667 22.5819L39.7771 21.7086C39.5705 21.6831 39.3505 21.7032 39.1331 21.7775L46.2227 22.6507C46.441 22.5764 46.6601 22.5563 46.8667 22.5819Z" fill="white"/>
</mask>
<g mask="url(#mask18_5451_1632)">
<path d="M39.1338 21.7774L46.2234 22.6506C46.4417 22.5763 46.6608 22.5562 46.8674 22.5817L39.7778 21.7085C39.5712 21.683 39.3513 21.7031 39.1338 21.7774Z" fill="#476621"/>
</g>
<mask id="mask19_5451_1632" style="mask-type:luminance" maskUnits="userSpaceOnUse" x="44" y="14" width="8" height="2">
<path d="M51.7569 15.2196L44.6673 14.3464C44.6864 14.3488 44.7055 14.3511 44.7246 14.3542L51.8142 15.2274C51.7951 15.2243 51.776 15.222 51.7569 15.2196Z" fill="white"/>
</mask>
<g mask="url(#mask19_5451_1632)">
<path d="M44.7231 14.3539L51.8127 15.2271C51.7937 15.224 51.7746 15.2217 51.7555 15.2194L44.6659 14.3462C44.685 14.3485 44.7041 14.3508 44.7231 14.3539Z" fill="#4A6A22"/>
</g>
<path d="M15.7078 57.2383L22.7974 58.1116L47.8372 47.8411L40.7467 46.9679L15.7078 57.2383Z" fill="#50B503" fill-opacity="0.7"/>
<mask id="mask20_5451_1632" style="mask-type:luminance" maskUnits="userSpaceOnUse" x="31" y="91" width="11" height="3">
<path d="M31.9693 92.7358L39.0589 93.609C39.946 93.7181 40.9037 93.3453 41.551 92.5301L34.4614 91.6569C33.8149 92.4713 32.8564 92.8449 31.9693 92.7358Z" fill="white"/>
</mask>
<g mask="url(#mask20_5451_1632)">
<path d="M31.9681 92.7357L39.0577 93.6089C39.9448 93.7179 40.9025 93.3451 41.5498 92.5299L34.4602 91.6567C33.8137 92.4712 32.8552 92.8447 31.9681 92.7357Z" fill="#808183"/>
</g>
<mask id="mask21_5451_1632" style="mask-type:luminance" maskUnits="userSpaceOnUse" x="34" y="90" width="9" height="3">
<path d="M34.458 91.6578L41.5477 92.531C41.8406 92.1087 42.0431 91.5572 42.1169 91.1048L35.0273 90.2316C34.9535 90.684 34.7518 91.2355 34.458 91.6578Z" fill="white"/>
</mask>
<g mask="url(#mask21_5451_1632)">
<path d="M34.4573 91.6577L41.5469 92.5309C41.8399 92.1086 42.0424 91.5571 42.1162 91.1047L35.0266 90.2314C34.9527 90.6839 34.7511 91.2354 34.4573 91.6577Z" fill="#808183"/>
</g>
<path d="M35.0284 90.2314L42.1188 91.1046L45.635 69.5652L38.5446 68.692L35.0284 90.2314Z" fill="#7D7E80"/>
<mask id="mask22_5451_1632" style="mask-type:luminance" maskUnits="userSpaceOnUse" x="36" y="65" width="10" height="5">
<path d="M43.4629 66.6945L36.3733 65.8213C36.3932 65.8236 36.4131 65.8267 36.4338 65.829C37.8604 66.0371 38.7716 67.331 38.5492 68.6915L45.6388 69.5647C45.8612 68.2042 44.95 66.9111 43.5234 66.7022C43.5035 66.6991 43.4836 66.6968 43.4629 66.6945Z" fill="white"/>
</mask>
<g mask="url(#mask22_5451_1632)">
<path d="M38.5492 68.6923L45.6388 69.5656C45.7641 68.7983 45.5293 68.0527 45.0446 67.5105L37.955 66.6373C38.4397 67.1795 38.6745 67.9251 38.5492 68.6923Z" fill="#808183"/>
<path d="M37.9573 66.637L45.0469 67.5102C44.6718 67.091 44.1481 66.7932 43.5257 66.7027C43.5058 66.6996 43.4859 66.6973 43.4651 66.695L36.3755 65.8218C36.3954 65.8241 36.4154 65.8272 36.4361 65.8295C37.0585 65.92 37.5822 66.2178 37.9573 66.637Z" fill="#858688"/>
</g>
<path d="M9.55807 23.4359C8.65599 23.3044 7.67259 23.6764 7.01201 24.5086C6.71906 24.9302 6.534 25.3672 6.45931 25.8212L0.0377541 65.1566C-0.129051 66.1775 0.272614 67.1636 0.965557 67.7298L30.6733 92.1487C31.0327 92.4713 31.4634 92.6631 31.914 92.7288C32.8161 92.8603 33.8003 92.489 34.4601 91.6576C34.753 91.2353 34.9555 90.6838 35.0294 90.2314L38.5455 68.692C38.7679 67.3315 37.8567 66.0383 36.4302 65.8295C35.0036 65.6206 33.7215 66.5944 33.4808 68.0686L31.0385 83.0322C30.909 83.8258 30.2692 84.313 29.5016 84.2009C29.2808 84.1684 29.0808 84.0238 28.88 83.8791L6.40289 65.3909C5.70994 64.8255 5.30828 63.8379 5.47508 62.8185L10.3423 33.0041C10.4718 32.2113 11.1132 31.7248 11.8809 31.8369C12.1 31.8687 12.3 32.0141 12.5025 32.1595L23.8958 41.484C24.2684 41.7748 24.685 41.9519 25.1115 42.0138C25.9398 42.1345 26.8037 41.8228 27.4451 41.0733C28.3049 39.9224 28.236 38.2874 27.1398 37.4304L10.7987 24.0175C10.4394 23.6942 10.0087 23.5024 9.55807 23.4367V23.4359Z" fill="white"/>
<mask id="mask23_5451_1632" style="mask-type:luminance" maskUnits="userSpaceOnUse" x="40" y="44" width="10" height="4">
<path d="M40.7472 46.9679L47.8368 47.8411C48.6783 47.5 49.3737 46.6724 49.5405 45.6523L42.4509 44.7791C42.2841 45.7992 41.5887 46.6268 40.7472 46.9679Z" fill="white"/>
</mask>
<g mask="url(#mask23_5451_1632)">
<path d="M40.7474 46.9679L47.837 47.8411C48.6785 47.5 49.374 46.6724 49.5408 45.6523L42.4512 44.7791C42.2844 45.7992 41.5889 46.6268 40.7474 46.9679Z" fill="#50B503" fill-opacity="0.7"/>
</g>
<path d="M42.451 44.7791L49.5415 45.6524L54.0012 18.333L46.9108 17.4598L42.451 44.7791Z" fill="#50B503" fill-opacity="0.7"/>
<mask id="mask24_5451_1632" style="mask-type:luminance" maskUnits="userSpaceOnUse" x="44" y="14" width="11" height="5">
<path d="M46.915 17.4598L54.0046 18.333C54.2452 16.8589 53.2427 15.4358 51.817 15.2277L44.7274 14.3545C46.1531 14.5625 47.1556 15.9857 46.915 17.4598Z" fill="white"/>
</mask>
<g mask="url(#mask24_5451_1632)">
<path d="M46.915 17.4596L54.0046 18.3328C54.1432 17.4836 53.8693 16.6514 53.3398 16.0581L46.2502 15.1849C46.7797 15.7774 47.0544 16.6104 46.915 17.4596Z" fill="#50B503" fill-opacity="0.7"/>
<path d="M46.2524 15.185L53.342 16.0582C52.952 15.622 52.4242 15.3158 51.8201 15.2276L44.7304 14.3544C45.3346 14.4425 45.8632 14.7488 46.2524 15.185Z" fill="#50B503" fill-opacity="0.7"/>
</g>
<path d="M44.722 14.3542C44.2822 14.29 43.8258 14.3395 43.3494 14.502L34.1984 18.2725C32.8806 18.7752 32.1818 20.2989 32.7461 21.6586C33.0466 22.5457 33.7868 23.1428 34.6399 23.2673C35.0781 23.3315 35.5453 23.2712 35.9992 23.0616L39.1295 21.7777C39.3586 21.6996 39.5893 21.681 39.8042 21.7127C40.2606 21.7792 40.6499 22.0693 40.8092 22.4877C40.8822 22.7305 40.9561 22.9734 40.9196 23.2L38.0324 40.8846C37.8656 41.9048 37.1694 42.7316 36.327 43.0727L17.7686 50.8078L18.7122 45.0264C18.9528 43.553 18.0408 42.259 16.6142 42.0502C15.1877 41.8414 13.9064 42.8159 13.6665 44.2893L12.0383 54.2651C11.7977 55.7385 12.6906 57.1453 14.1163 57.3534C14.6649 57.4338 15.2325 57.3998 15.7072 57.2374L40.7461 46.9669C41.5876 46.6258 42.283 45.7983 42.4499 44.7781L46.9096 17.4588C47.1503 15.9846 46.1478 14.5615 44.722 14.3535V14.3542Z" fill="#9CDC00"/>
<path d="M25.2765 64.6726L32.3669 65.5458L48.6191 58.8656L41.5287 57.9924L25.2765 64.6726Z" fill="#398211"/>
<path d="M22.6606 17.3996L29.7502 18.2728L57.0945 6.94657L50.0049 6.07336L22.6606 17.3996Z" fill="#7B7C7E"/>
<mask id="mask25_5451_1632" style="mask-type:luminance" maskUnits="userSpaceOnUse" x="41" y="57" width="9" height="2">
<path d="M49.918 58.7097L42.8284 57.8365C42.3819 57.7815 41.9221 57.8303 41.5205 57.9927L48.6101 58.8659C49.0117 58.7035 49.4715 58.6548 49.918 58.7097Z" fill="white"/>
</mask>
<g mask="url(#mask25_5451_1632)">
<path d="M41.5195 57.9927L48.6091 58.8659C49.0108 58.7035 49.4705 58.6548 49.917 58.7097L42.8274 57.8365C42.3809 57.7815 41.9212 57.8303 41.5195 57.9927Z" fill="#398211"/>
</g>
<mask id="mask26_5451_1632" style="mask-type:luminance" maskUnits="userSpaceOnUse" x="43" y="51" width="8" height="2">
<path d="M50.9104 52.7008L43.8208 51.8276C43.8423 51.83 43.8639 51.8331 43.8855 51.8361L50.9751 52.7094C50.9535 52.7063 50.9319 52.7032 50.9104 52.7008Z" fill="white"/>
</mask>
<g mask="url(#mask26_5451_1632)">
<path d="M43.8852 51.836L50.9749 52.7092C50.9533 52.7061 50.9317 52.703 50.9101 52.7007L43.8205 51.8275C43.8421 51.8298 43.8637 51.8329 43.8852 51.836Z" fill="#4A6A22"/>
</g>
<mask id="mask27_5451_1632" style="mask-type:luminance" maskUnits="userSpaceOnUse" x="50" y="5" width="9" height="2">
<path d="M58.4006 6.78913L51.311 5.91593C50.8646 5.86101 50.4048 5.90974 50.004 6.07216L57.0936 6.94537C57.4952 6.78295 57.955 6.73422 58.4006 6.78913Z" fill="white"/>
</mask>
<g mask="url(#mask27_5451_1632)">
<path d="M50.004 6.07375L57.0936 6.94696C57.4952 6.78453 57.955 6.73581 58.4006 6.79072L51.311 5.91751C50.8646 5.8626 50.4048 5.91133 50.004 6.07375Z" fill="#808183"/>
</g>
<mask id="mask28_5451_1632" style="mask-type:luminance" maskUnits="userSpaceOnUse" x="52" y="0" width="8" height="1">
<path d="M59.3684 0.894816L52.2788 0.0216064C52.3003 0.0239268 52.3219 0.0270205 52.3435 0.0301142L59.4331 0.903324C59.4115 0.90023 59.39 0.897136 59.3684 0.894816Z" fill="white"/>
</mask>
<g mask="url(#mask28_5451_1632)">
<path d="M52.3435 0.0301142L59.4331 0.903324C59.4115 0.90023 59.39 0.897136 59.3684 0.894816L52.2788 0.0216064C52.3003 0.0239268 52.3219 0.0270205 52.3435 0.0301142Z" fill="#858688"/>
</g>
<mask id="mask29_5451_1632" style="mask-type:luminance" maskUnits="userSpaceOnUse" x="43" y="51" width="10" height="3">
<path d="M45.1416 52.3693L52.2312 53.2425C51.8843 52.9594 51.4362 52.7784 50.9698 52.7104L43.8802 51.8372C44.3466 51.9052 44.7947 52.087 45.1416 52.3693Z" fill="white"/>
</mask>
<g mask="url(#mask29_5451_1632)">
<path d="M45.1416 52.3693L52.2312 53.2425C51.8843 52.9594 51.4362 52.7784 50.9698 52.7104L43.8802 51.8372C44.3466 51.9052 44.7947 52.087 45.1416 52.3693Z" fill="#398211"/>
</g>
<mask id="mask30_5451_1632" style="mask-type:luminance" maskUnits="userSpaceOnUse" x="52" y="0" width="9" height="2">
<path d="M53.6003 0.562927L60.6899 1.43614C60.3431 1.15306 59.8949 0.972074 59.4285 0.904012L52.3389 0.0300293C52.8053 0.0980917 53.2535 0.279849 53.6003 0.562153V0.562927Z" fill="white"/>
</mask>
<g mask="url(#mask30_5451_1632)">
<path d="M53.6006 0.562927L60.6902 1.43614C60.3433 1.15306 59.8952 0.972074 59.4288 0.904012L52.3392 0.0300293C52.8056 0.0980917 53.2537 0.279849 53.6006 0.562153" fill="#858688"/>
</g>
<mask id="mask31_5451_1632" style="mask-type:luminance" maskUnits="userSpaceOnUse" x="42" y="93" width="9" height="2">
<path d="M42.7062 94.1175L49.7958 94.9907C50.1327 95.0324 50.5128 94.9273 50.8406 94.8151L43.751 93.9419C43.424 94.054 43.0431 94.1592 42.7062 94.1175Z" fill="white"/>
</mask>
<g mask="url(#mask31_5451_1632)">
<path d="M42.7059 94.1173L49.7955 94.9906C50.1324 95.0323 50.5125 94.9271 50.8403 94.815L43.7507 93.9418C43.4238 94.0539 43.0428 94.1591 42.7059 94.1173Z" fill="#808183"/>
</g>
<mask id="mask32_5451_1632" style="mask-type:luminance" maskUnits="userSpaceOnUse" x="55" y="15" width="8" height="2">
<path d="M62.1716 16.6921L55.082 15.8188C55.1011 15.8212 55.1202 15.8235 55.1384 15.8266L62.228 16.6998C62.2089 16.6967 62.1907 16.6944 62.1716 16.6921Z" fill="white"/>
</mask>
<g mask="url(#mask32_5451_1632)">
<path d="M55.1362 15.8267L62.2258 16.6999C62.2067 16.6968 62.1885 16.6945 62.1694 16.6922L55.0798 15.819C55.0989 15.8213 55.118 15.8236 55.1362 15.8267Z" fill="#4A6A22"/>
</g>
<mask id="mask33_5451_1632" style="mask-type:luminance" maskUnits="userSpaceOnUse" x="46" y="85" width="8" height="2">
<path d="M46.2849 85.956L53.3745 86.8292C53.3023 86.5871 53.2293 86.3443 53.2666 86.1169L46.177 85.2437C46.1397 85.471 46.2127 85.7139 46.2849 85.956Z" fill="white"/>
</mask>
<g mask="url(#mask33_5451_1632)">
<path d="M46.2847 85.9559L53.3743 86.8291C53.3021 86.587 53.229 86.3441 53.2664 86.1167L46.1768 85.2435C46.1394 85.4709 46.2125 85.7138 46.2847 85.9559Z" fill="#808183"/>
</g>
<path d="M46.1792 85.2429L53.2688 86.1161L55.7302 71.0403L48.6406 70.1671L46.1792 85.2429Z" fill="#7D7E80"/>
<mask id="mask34_5451_1632" style="mask-type:luminance" maskUnits="userSpaceOnUse" x="46" y="67" width="10" height="5">
<path d="M53.5706 68.0561L46.481 67.1829C46.5009 67.1852 46.5209 67.1883 46.5416 67.1906C47.9682 67.3986 48.8802 68.6918 48.6395 70.1668L55.7291 71.04C55.9698 69.565 55.0578 68.2726 53.6312 68.0638C53.6113 68.0607 53.5906 68.0584 53.5706 68.0553V68.0561Z" fill="white"/>
</mask>
<g mask="url(#mask34_5451_1632)">
<path d="M48.6372 70.167L55.7268 71.0402C55.8646 70.1971 55.6256 69.4136 55.1285 68.8583L48.0389 67.9851C48.5352 68.5404 48.775 69.3239 48.6372 70.167Z" fill="#808183"/>
<path d="M48.0388 67.9853L55.1284 68.8585C54.7566 68.4424 54.2396 68.1539 53.628 68.0642C53.6081 68.0611 53.5873 68.0588 53.5674 68.0557L46.4778 67.1825C46.4977 67.1848 46.5177 67.1879 46.5384 67.191C47.1492 67.2799 47.6662 67.5684 48.0388 67.9853Z" fill="#858688"/>
</g>
<mask id="mask35_5451_1632" style="mask-type:luminance" maskUnits="userSpaceOnUse" x="55" y="15" width="9" height="3">
<path d="M56.4062 16.4157L63.4958 17.2889C63.1299 16.9602 62.6909 16.7668 62.232 16.6995L55.1423 15.8263C55.6013 15.8936 56.0403 16.0862 56.4062 16.4157Z" fill="white"/>
</mask>
<g mask="url(#mask35_5451_1632)">
<path d="M56.4043 16.4157L63.4939 17.2889C63.1279 16.9602 62.6889 16.7668 62.23 16.6995L55.1404 15.8263C55.5993 15.8936 56.0383 16.0862 56.4043 16.4157Z" fill="#409A0F"/>
</g>
<path d="M53.0421 43.199L60.1317 44.0722L63.0188 26.3883L55.9284 25.5151L53.0421 43.199Z" fill="#398207"/>
<mask id="mask36_5451_1632" style="mask-type:luminance" maskUnits="userSpaceOnUse" x="46" y="85" width="9" height="3">
<path d="M47.3237 86.7348L54.4133 87.608C54.4034 87.6064 54.3926 87.6057 54.3826 87.6041C53.9262 87.5376 53.537 87.2476 53.3768 86.8291L46.2872 85.9559C46.4474 86.3736 46.8366 86.6636 47.293 86.7309C47.303 86.7325 47.3138 86.734 47.3237 86.7348Z" fill="white"/>
</mask>
<g mask="url(#mask36_5451_1632)">
<path d="M47.3232 86.7347L54.4128 87.6079C54.4029 87.6063 54.3921 87.6056 54.3821 87.604C54.0726 87.5592 53.7946 87.4114 53.5971 87.1902L46.5075 86.317C46.705 86.5374 46.983 86.6852 47.2925 86.7308C47.3025 86.7323 47.3133 86.7339 47.3232 86.7347Z" fill="#858688"/>
<path d="M46.5044 86.3173L53.594 87.1905C53.5002 87.0853 53.4247 86.9638 53.3733 86.8293L46.2836 85.9561C46.3351 86.0906 46.4106 86.2121 46.5044 86.3173Z" fill="#808183"/>
</g>
<mask id="mask37_5451_1632" style="mask-type:luminance" maskUnits="userSpaceOnUse" x="52" y="43" width="10" height="4">
<path d="M53.9641 45.7724L61.0537 46.6456C60.3608 46.0803 59.9591 45.0926 60.1259 44.0724L53.0363 43.1992C52.8695 44.2194 53.2712 45.2071 53.9641 45.7724Z" fill="white"/>
</mask>
<g mask="url(#mask37_5451_1632)">
<path d="M53.9658 45.772L61.0554 46.6452C60.9575 46.5655 60.8654 46.4766 60.7799 46.3807L53.6903 45.5074C53.7758 45.6034 53.8679 45.6915 53.9658 45.772Z" fill="#398207"/>
<path d="M53.6916 45.5083L60.7812 46.3815C60.2617 45.7999 59.9862 44.9483 60.129 44.0728L53.0394 43.1996C52.8966 44.0759 53.1721 44.9274 53.6916 45.5083Z" fill="#398207"/>
</g>
<mask id="mask38_5451_1632" style="mask-type:luminance" maskUnits="userSpaceOnUse" x="55" y="24" width="10" height="3">
<path d="M64.5181 25.2159L57.4285 24.3427C56.6766 24.2498 56.0525 24.7332 55.9247 25.5152L63.0143 26.3884C63.1421 25.6065 63.7662 25.1231 64.5181 25.2159Z" fill="white"/>
</mask>
<g mask="url(#mask38_5451_1632)">
<path d="M55.923 25.5152L63.0126 26.3884C63.1404 25.6065 63.7645 25.1231 64.5164 25.2159L57.4267 24.3427C56.6749 24.2498 56.0508 24.7332 55.923 25.5152Z" fill="#398207"/>
</g>
<mask id="mask39_5451_1632" style="mask-type:luminance" maskUnits="userSpaceOnUse" x="54" y="77" width="9" height="2">
<path d="M54.5081 78.0497L61.5977 78.9229C62.0201 78.9748 62.4682 78.9113 62.9031 78.7102L55.8135 77.837C55.3786 78.0381 54.9305 78.1016 54.5081 78.0497Z" fill="white"/>
</mask>
<g mask="url(#mask39_5451_1632)">
<path d="M54.5088 78.05L61.5984 78.9232C62.0208 78.975 62.469 78.9116 62.9038 78.7105L55.8142 77.8373C55.3794 78.0384 54.9312 78.1018 54.5088 78.05Z" fill="#398211"/>
</g>
<path d="M63.9224 22.6207L71.012 23.4939L63.4908 17.2886L56.4004 16.4154L63.9224 22.6207Z" fill="#409A0F"/>
<mask id="mask40_5451_1632" style="mask-type:luminance" maskUnits="userSpaceOnUse" x="61" y="26" width="11" height="3">
<path d="M61.8883 27.2922L68.9779 28.1654C69.8402 28.2714 70.7389 27.9388 71.2991 27.2497L64.2095 26.3765C63.6485 27.0656 62.7497 27.3982 61.8883 27.2922Z" fill="white"/>
</mask>
<g mask="url(#mask40_5451_1632)">
<path d="M61.8881 27.2923L68.9777 28.1655C69.8399 28.2715 70.7387 27.9389 71.2988 27.2498L64.2092 26.3766C63.6482 27.0657 62.7495 27.3983 61.8881 27.2923Z" fill="#409A0F"/>
</g>
<mask id="mask41_5451_1632" style="mask-type:luminance" maskUnits="userSpaceOnUse" x="61" y="37" width="9" height="2">
<path d="M61.3621 38.0802L68.4517 38.9535C68.875 39.0053 69.3231 38.9419 69.7588 38.7408L62.6692 37.8676C62.2335 38.0686 61.7845 38.1321 61.3621 38.0802Z" fill="white"/>
</mask>
<g mask="url(#mask41_5451_1632)">
<path d="M61.3621 38.0802L68.4517 38.9535C68.875 39.0053 69.3231 38.9419 69.7588 38.7408L62.6692 37.8676C62.2335 38.0686 61.7845 38.1321 61.3621 38.0802Z" fill="#808183"/>
</g>
<mask id="mask42_5451_1632" style="mask-type:luminance" maskUnits="userSpaceOnUse" x="63" y="22" width="9" height="6">
<path d="M64.2071 26.3763L71.2967 27.2495C72.1581 26.0986 71.9788 24.4473 71.0112 23.4937L63.9216 22.6205C64.8892 23.5741 65.0685 25.2254 64.2071 26.3763Z" fill="white"/>
</mask>
<g mask="url(#mask42_5451_1632)">
<path d="M64.2074 26.3763L71.297 27.2495C72.1227 26.1458 71.9916 24.5827 71.1268 23.6152L64.0372 22.7419C64.902 23.7095 65.0331 25.2734 64.2074 26.3763Z" fill="#409A0F"/>
<path d="M64.0359 22.7419L71.1255 23.6151C71.0881 23.5734 71.05 23.5331 71.0101 23.4937L63.9205 22.6205C63.9604 22.6599 63.9994 22.7001 64.0359 22.7419Z" fill="#409A0F"/>
</g>
<mask id="mask43_5451_1632" style="mask-type:luminance" maskUnits="userSpaceOnUse" x="65" y="47" width="9" height="2">
<path d="M65.0656 47.783L72.1552 48.6562C72.5784 48.708 73.0266 48.6446 73.4614 48.4435L66.3718 47.5703C65.937 47.7714 65.488 47.8348 65.0656 47.783Z" fill="white"/>
</mask>
<g mask="url(#mask43_5451_1632)">
<path d="M65.0654 47.7833L72.155 48.6565C72.5782 48.7083 73.0263 48.6449 73.4612 48.4438L66.3716 47.5706C65.9367 47.7716 65.4878 47.8351 65.0654 47.7833Z" fill="#808183"/>
</g>
<path d="M55.8122 77.8372L62.9018 78.7104L72.0544 74.9391L64.964 74.0659L55.8122 77.8372Z" fill="#398211"/>
<path d="M65.7417 69.3047L72.8313 70.1779L52.2355 53.2427L45.1459 52.3695L65.7417 69.3047Z" fill="#398211"/>
<path d="M43.8825 51.8367C43.4161 51.7686 42.9315 51.8135 42.5099 51.9844L17.4718 62.2549C16.1349 62.8721 15.4386 64.3957 15.8743 65.8521C16.0195 66.3371 16.2925 66.7253 16.695 67.0161L24.2361 73.1077C24.588 73.3823 24.9921 73.5455 25.407 73.6058C26.2859 73.7342 27.212 73.4032 27.7855 72.697C28.6477 71.5477 28.4668 69.8956 27.4817 69.0549L24.9075 66.938C24.305 66.5018 24.2336 65.5629 24.7639 65.0601C24.9108 64.8498 25.1498 64.7685 25.2776 64.6719L41.5298 57.9925C41.9506 57.8215 42.436 57.7767 42.9024 57.8447C43.3688 57.9128 43.8169 58.0946 44.1638 58.3769L57.5289 69.3821C58.1323 69.8183 58.2219 70.6436 57.7821 71.2755C57.6335 71.4858 57.3779 71.6807 57.1397 71.7619L54.0103 73.0459C52.6916 73.5494 51.9953 75.073 52.5588 76.4304C52.8592 77.3191 53.6003 77.917 54.4534 78.0415C54.8908 78.1057 55.358 78.0453 55.8103 77.8357L64.9621 74.0645C66.2965 73.4473 66.9961 71.9244 66.5596 70.468C66.4144 69.9823 66.1405 69.5948 65.7397 69.3032L45.1439 52.3673C44.797 52.0842 44.3489 51.9032 43.8825 51.8351V51.8367Z" fill="#9CDC00"/>
<mask id="mask44_5451_1632" style="mask-type:luminance" maskUnits="userSpaceOnUse" x="64" y="69" width="10" height="6">
<path d="M64.9655 74.0661L72.0551 74.9393C73.3896 74.3221 74.0892 72.7992 73.6526 71.3428C73.5074 70.8571 73.2336 70.4696 72.8327 70.178L65.7431 69.3048C66.1439 69.5956 66.4186 69.9839 66.563 70.4696C66.9995 71.926 66.3 73.4489 64.9655 74.0661Z" fill="white"/>
</mask>
<g mask="url(#mask44_5451_1632)">
<path d="M64.9653 74.0662L72.0549 74.9394C73.3893 74.3222 74.0889 72.7993 73.6524 71.343C73.5553 71.0173 73.3993 70.7358 73.1868 70.4976L66.0972 69.6244C66.3097 69.8626 66.4657 70.1441 66.5628 70.4698C66.9993 71.9261 66.2997 73.449 64.9653 74.0662Z" fill="#398211"/>
<path d="M66.0942 69.6244L73.1838 70.4976C73.0793 70.3809 72.9614 70.2741 72.8295 70.179L65.7399 69.3058C65.8718 69.4017 65.9905 69.5077 66.0942 69.6244Z" fill="#398211"/>
</g>
<path d="M69.1064 58.3125L76.196 59.1857L61.0592 46.6452L53.9696 45.772L69.1064 58.3125Z" fill="#398207"/>
<mask id="mask45_5451_1632" style="mask-type:luminance" maskUnits="userSpaceOnUse" x="70" y="64" width="10" height="3">
<path d="M70.3391 65.6279L77.4287 66.5011C78.3067 66.6093 79.2486 66.2605 79.8777 65.5265L72.7881 64.6533C72.1599 65.3873 71.218 65.7361 70.3391 65.6279Z" fill="white"/>
</mask>
<g mask="url(#mask45_5451_1632)">
<path d="M70.3394 65.6277L77.429 66.5009C78.307 66.6092 79.2489 66.2604 79.8779 65.5264L72.7883 64.6532C72.1601 65.3872 71.2182 65.736 70.3394 65.6277Z" fill="#398211"/>
</g>
<mask id="mask46_5451_1632" style="mask-type:luminance" maskUnits="userSpaceOnUse" x="72" y="63" width="9" height="3">
<path d="M72.7948 64.6525L79.8844 65.5257C80.2877 65.1205 80.4703 64.6827 80.5632 64.1158L73.4736 63.2426C73.3807 63.8095 73.1981 64.2472 72.7948 64.6525Z" fill="white"/>
</mask>
<g mask="url(#mask46_5451_1632)">
<path d="M72.7948 64.6526L79.8844 65.5259C80.2877 65.1206 80.4703 64.6828 80.5632 64.1159L73.4736 63.2427C73.3807 63.8096 73.1981 64.2474 72.7948 64.6526Z" fill="#398211"/>
</g>
<path d="M73.4674 63.2432L80.557 64.1164L82.186 54.1414L75.0956 53.2682L73.4674 63.2432Z" fill="#398211"/>
<path d="M55.1425 15.826C54.2479 15.6953 53.2795 16.0434 52.638 16.7928C52.3434 17.2136 52.0504 17.6359 51.9583 18.202L47.4986 45.5221C47.3318 46.5423 47.7326 47.5292 48.4264 48.0946L69.023 65.0313C69.3881 65.36 69.8271 65.5526 70.2861 65.6198C71.1798 65.7505 72.1491 65.4033 72.7914 64.653C73.1948 64.2478 73.3773 63.81 73.4703 63.2431L75.0985 53.2681C75.3392 51.7939 74.428 50.5007 73.0014 50.2919C71.5749 50.0831 70.2935 51.0568 70.0537 52.531L69.1101 58.3124L53.9732 45.7719C53.2803 45.2065 52.8786 44.2189 53.0454 43.1987L55.9326 25.5149C56.062 24.7206 56.7044 24.2348 57.4712 24.347C57.6902 24.3787 57.8911 24.5249 58.0927 24.6703L60.6662 26.7864C61.018 27.061 61.4222 27.2242 61.8371 27.2845C62.716 27.4129 63.6429 27.0811 64.2155 26.3765C65.0769 25.2256 64.8977 23.5743 63.9301 22.6207L56.4081 16.4154C56.0421 16.0867 55.6031 15.8933 55.1442 15.826H55.1425Z" fill="#9CDC00"/>
<mask id="mask47_5451_1632" style="mask-type:luminance" maskUnits="userSpaceOnUse" x="72" y="50" width="11" height="5">
<path d="M80.0294 51.1574L72.9398 50.2842C72.9598 50.2865 72.9797 50.2896 73.0004 50.2919C74.427 50.5 75.3382 51.7939 75.0975 53.2681L82.1871 54.1413C82.4278 52.6671 81.5166 51.374 80.09 51.1651C80.0701 51.162 80.0502 51.1597 80.0294 51.1574Z" fill="white"/>
</mask>
<g mask="url(#mask47_5451_1632)">
<path d="M75.0967 53.268L82.1863 54.1412C82.3241 53.2981 82.0851 52.5146 81.588 51.9585L74.4984 51.0853C74.9946 51.6407 75.2345 52.4249 75.0967 53.268Z" fill="#398211"/>
<path d="M74.4973 51.0855L81.5869 51.9587C81.2151 51.5426 80.699 51.2548 80.0882 51.1651C80.0682 51.162 80.0483 51.1597 80.0276 51.1574L72.938 50.2842C72.9579 50.2865 72.9778 50.2896 72.9986 50.2919C73.6093 50.3809 74.1255 50.6693 74.4973 51.0855Z" fill="#398211"/>
</g>
<path d="M66.3681 47.5703L73.4586 48.4435L87.1672 42.901L80.0768 42.0278L66.3681 47.5703Z" fill="#7B7C7E"/>
<mask id="mask48_5451_1632" style="mask-type:luminance" maskUnits="userSpaceOnUse" x="80" y="41" width="8" height="2">
<path d="M87.8101 42.8328L80.7205 41.9596C80.5138 41.9341 80.2947 41.9542 80.0765 42.0285L87.1661 42.9017C87.3843 42.8274 87.6034 42.8073 87.8101 42.8328Z" fill="white"/>
</mask>
<g mask="url(#mask48_5451_1632)">
<path d="M80.0762 42.0276L87.1658 42.9008C87.3841 42.8266 87.6032 42.8065 87.8098 42.832L80.7202 41.9588C80.5136 41.9332 80.2945 41.9534 80.0762 42.0276Z" fill="#808183"/>
</g>
<path d="M62.6738 37.8683L69.7634 38.7415L89.6206 30.615L82.5302 29.7418L62.6738 37.8683Z" fill="#7B7C7E"/>
<path d="M83.3086 24.9807L90.3982 25.8539L60.6921 1.43656L53.6025 0.563354L83.3086 24.9807Z" fill="#87888A"/>
<path d="M52.3404 0.0304172C51.874 -0.0376452 51.3894 0.0072141 50.9686 0.178143L14.8575 14.9825C13.5223 15.5997 12.8243 17.1226 13.26 18.579C13.4053 19.0647 13.6799 19.4529 14.0799 19.7438L30.4226 33.1567C30.7952 33.4475 31.2118 33.6246 31.6384 33.6865C32.4666 33.8071 33.3305 33.4955 33.972 32.746C34.8317 31.5951 34.7629 29.9601 33.6666 29.1031L22.2733 19.7793C21.67 19.3423 21.6003 18.4034 22.021 17.8852C22.1687 17.674 22.4061 17.5936 22.6625 17.3979L50.0068 6.07095C50.4276 5.90002 50.9122 5.85517 51.3786 5.92323C51.845 5.99129 52.2931 6.17305 52.64 6.45535L75.0988 25.0557C75.6997 25.4919 75.7719 26.4309 75.2217 27.0473C75.0756 27.2577 74.8383 27.3397 74.7105 27.4371L60.8723 33.0755C59.5562 33.5798 58.8574 35.1027 59.4217 36.4616C59.7221 37.3495 60.4624 37.9466 61.3163 38.0711C61.7545 38.1353 62.2217 38.075 62.6748 37.8654L82.5312 29.7396C83.8681 29.1224 84.5669 27.5995 84.1304 26.1432C83.9851 25.6574 83.7113 25.27 83.3088 24.9784L53.6018 0.563315C53.2549 0.280237 52.8068 0.099253 52.3404 0.0311906V0.0304172Z" fill="white"/>
<mask id="mask49_5451_1632" style="mask-type:luminance" maskUnits="userSpaceOnUse" x="82" y="24" width="10" height="7">
<path d="M82.5292 29.7419L89.6188 30.6151C90.9558 29.9979 91.6545 28.475 91.218 27.0186C91.0728 26.5329 90.7989 26.1454 90.3964 25.8538L83.3068 24.9806C83.7093 25.2722 83.9832 25.6597 84.1284 26.1454C84.5649 27.601 83.8662 29.1247 82.5292 29.7419Z" fill="white"/>
</mask>
<g mask="url(#mask49_5451_1632)">
<path d="M82.5292 29.7411L89.6188 30.6143C90.9558 29.9971 91.6545 28.4742 91.218 27.0178C91.1209 26.693 90.9657 26.4115 90.7533 26.1733L83.6637 25.3C83.8761 25.5383 84.0313 25.819 84.1284 26.1446C84.5649 27.6002 83.8662 29.1239 82.5292 29.7411Z" fill="#808183"/>
<path d="M83.6638 25.301L90.7534 26.1742C90.6489 26.0567 90.5294 25.95 90.3966 25.854L83.307 24.9808C83.4397 25.0767 83.5593 25.1842 83.6638 25.301Z" fill="#858688"/>
</g>
<mask id="mask50_5451_1632" style="mask-type:luminance" maskUnits="userSpaceOnUse" x="85" y="34" width="8" height="2">
<path d="M92.7203 35.3555L85.6307 34.4823C85.6498 34.4846 85.6689 34.4869 85.688 34.49L92.7776 35.3632C92.7585 35.3602 92.7394 35.3578 92.7203 35.3555Z" fill="white"/>
</mask>
<g mask="url(#mask50_5451_1632)">
<path d="M85.6853 34.4899L92.7749 35.3631C92.7558 35.36 92.7367 35.3577 92.7176 35.3554L85.628 34.4822C85.6471 34.4845 85.6662 34.4868 85.6853 34.4899Z" fill="#858688"/>
</g>
<path d="M43.7493 93.9416L50.8389 94.8148L86.8413 79.9942L79.7509 79.121L43.7493 93.9416Z" fill="#7B7C7E"/>
<mask id="mask51_5451_1632" style="mask-type:luminance" maskUnits="userSpaceOnUse" x="79" y="76" width="10" height="4">
<path d="M79.7458 79.1207L86.8354 79.9939C87.6769 79.6528 88.374 78.8268 88.5408 77.8058L81.4512 76.9326C81.2844 77.9528 80.5873 78.7788 79.7458 79.1207Z" fill="white"/>
</mask>
<g mask="url(#mask51_5451_1632)">
<path d="M79.7438 79.1207L86.8334 79.9939C87.6749 79.6528 88.372 78.8268 88.5388 77.8058L81.4492 76.9326C81.2824 77.9528 80.5853 78.7788 79.7438 79.1207Z" fill="#808183"/>
</g>
<path d="M81.4517 76.9333L88.5413 77.8065L94.9629 38.4695L87.8733 37.5963L81.4517 76.9333Z" fill="#7D7E80"/>
<path d="M85.6848 34.4907C85.245 34.4265 84.7894 34.476 84.313 34.6392L64.5653 42.7804C63.2467 43.2847 62.5496 44.8076 63.1139 46.1665C63.4135 47.0536 64.1546 47.6515 65.0077 47.776C65.4458 47.8402 65.9131 47.7799 66.3653 47.5703L80.074 42.0278C80.3031 41.9497 80.5338 41.9311 80.7487 41.9629C81.2051 42.0294 81.5943 42.3194 81.7553 42.7378C81.9371 42.9969 81.9006 43.2236 81.8632 43.4502L76.996 73.2638C76.8292 74.284 76.1321 75.1108 75.2906 75.4519L47.9646 86.6651C47.7364 86.7425 47.5056 86.761 47.2907 86.7293C46.8343 86.6628 46.4451 86.3728 46.2849 85.9543C46.2127 85.7123 46.1397 85.4694 46.177 85.242L48.6384 70.1662C48.8791 68.6913 47.9671 67.3988 46.5405 67.19C45.114 66.982 43.8335 67.9542 43.6111 69.3154L40.0949 90.8541C39.8542 92.3275 40.8567 93.7498 42.2824 93.9579C42.4003 94.0437 42.5339 94.0909 42.6758 94.1118C43.0185 94.1621 43.4102 94.0545 43.7455 93.9393L79.747 79.1187C80.5885 78.7776 81.2856 77.9516 81.4524 76.9307L87.874 37.5945C88.1147 36.1203 87.1105 34.6972 85.6848 34.4891V34.4907Z" fill="white"/>
<mask id="mask52_5451_1632" style="mask-type:luminance" maskUnits="userSpaceOnUse" x="85" y="34" width="11" height="5">
<path d="M87.875 37.5966L94.9646 38.4698C95.2052 36.9956 94.2011 35.5725 92.7754 35.3644L85.6858 34.4912C87.1123 34.6993 88.1156 36.1232 87.875 37.5966Z" fill="white"/>
</mask>
<g mask="url(#mask52_5451_1632)">
<path d="M87.8749 37.5962L94.9645 38.4694C95.1031 37.6209 94.8293 36.7887 94.299 36.1955L87.2094 35.3223C87.7388 35.9155 88.0135 36.7469 87.8749 37.5962Z" fill="#808183"/>
<path d="M87.2102 35.3233L94.2998 36.1965C93.9098 35.7595 93.3803 35.4532 92.7753 35.3643L85.6857 34.4911C86.2907 34.5793 86.8193 34.8863 87.2102 35.3233Z" fill="#858688"/>
</g>
</svg>
