<svg width="850" height="516" viewBox="0 0 850 516" fill="none" xmlns="http://www.w3.org/2000/svg">

        <path
                d="M48.666 182.764C49.4048 191.572 52.5757 195.959 57.6641 195.959C62.7524 195.959 65.4419 190.317 65.4419 184.75C65.4419 178.327 62.8604 170.442 55.8296 166.819C45.4453 161.476 41.7017 154.638 41.876 142.747C42.0503 130.849 48.1929 117.363 59.5317 112.394C74.4731 105.838 72.6885 135.693 72.5972 142.847H64.6118C63.9976 137.43 63.3833 127.276 58.0376 128.273C53.3228 129.154 50.019 137.928 50.019 141.784C50.019 145.838 52.4927 150.832 59.1665 155.294C70.2148 162.681 73.9502 169.436 73.7261 183.246C73.5601 193.533 69.9658 208.531 57.2988 208.514C44.2998 208.498 41.6685 193.117 40.6309 182.764H48.666Z"
                fill="#AFD3FC" />
        <path
                d="M109.71 166.844H89.4976V193.849H111.785C111.387 199.989 111.179 204.385 110.781 207.858H81.5703C81.5703 173.018 81.7612 138.51 83.77 103.711C92.71 100.454 101.567 97.4876 110.681 94.7373C110.648 105.082 110.64 115.427 110.623 125.772C102.331 126.437 98.2881 126.811 90.1201 127.666C89.7051 137.147 89.4312 146.32 89.4893 155.785H109.702V166.844H109.71Z"
                fill="#AFD3FC" />
        <path
                d="M126.761 168.755V207.85H118.775C118.775 169.42 118.792 130.99 118.875 92.5687C125.682 90.8072 128.247 90.1258 133.559 89.0706C148.26 90.0344 150.028 133.342 151.173 142.831C152.12 150.699 147.646 161.958 143.885 163.338C150.526 168.306 150.343 177.546 150.31 185.315V186.52C150.31 191.53 150.501 204.459 150.933 207.85H143.063C142.416 205.39 142.233 192.735 142.233 186.42V185.157C142.233 177.679 140.167 168.755 133.625 168.755H126.769H126.761ZM126.761 158.377H134.265C139.245 158.377 143.86 151.929 143.072 143.828C142.507 138.011 140.93 125.523 134.397 122.332C131.243 122.531 129.666 122.648 126.404 122.922C126.603 134.754 126.761 146.553 126.761 158.377Z"
                fill="#AFD3FC" />
        <path
                d="M170.133 207.85C162.745 167.525 156.096 127.301 147.887 87.1262C150.883 86.9018 152.477 86.8187 156.071 86.7024C161.948 111.297 166.231 136.457 170.365 161.393C172.175 171.472 173.295 181.618 175.047 191.705H175.18C176.715 181.709 177.753 171.489 180.102 161.651C184.501 136.84 185.033 111.887 186.925 86.7772C190.271 87.0181 191.964 87.3006 195.359 88.0817C192.221 128.805 187.39 167.808 179.82 207.85H170.133Z"
                fill="#AFD3FC" />
        <path
                d="M209.387 92.7597C208.997 131.123 208.897 169.478 208.897 207.85H200.787C200.787 168.448 200.837 129.046 201.028 89.6438C204.356 90.7074 206.033 91.3389 209.378 92.7597H209.387Z"
                fill="#AFD3FC" />
        <path
                d="M254.651 181.36C253.223 191.672 249.77 208.406 236.846 208.614C218.485 208.913 217.497 175.253 217.538 163.221C217.571 153.109 222.502 96.5653 238.257 107.517C249.214 115.136 253.414 132.984 254.41 146.046H246.425C245.412 137.612 242.623 127.226 237.402 127.018C228.728 126.678 225.889 155.037 225.897 163.196C225.897 172.436 226.254 194.447 237.028 195.785C242.573 196.474 245.587 189.536 246.641 181.36H254.651Z"
                fill="#AFD3FC" />
        <path
                d="M290.004 172.004C281.919 170.043 277.877 169.013 269.792 167.858V193.99C278.707 194.173 283.165 194.339 292.08 194.638C291.681 200.396 291.474 204.459 291.075 207.858C281.338 207.841 271.602 207.833 261.865 207.841C261.865 179.424 262.097 151.007 261.309 122.598C270.149 127.716 279.039 132.768 288.137 137.413C288.801 140.014 289.133 142.864 289.797 147.018C281.43 142.814 277.321 140.562 269.211 137.446C269.817 145.772 269.784 147.326 269.784 156.989C277.869 158.568 281.911 160.064 289.996 162.914V171.996L290.004 172.004Z"
                fill="#AFD3FC" />
        <path
                d="M304.887 185.365C305.625 191.298 308.796 197.098 313.885 197.206C319.214 197.314 321.663 191.24 321.663 187.434C321.663 183.047 319.064 180.413 312.05 177.048C304.048 173.217 298.014 166.678 298.097 157.289C298.18 148.406 301.508 143.47 310.93 146.985C320.31 150.492 327.49 157.313 328.818 167.484C325.622 167.351 324.028 167.102 320.833 166.37C320.218 162.731 317.379 157.588 312.009 155.602C307.277 153.849 306.24 157.064 306.24 160.413C306.24 163.936 308.581 167.259 315.387 170.816C326.975 176.873 330.221 180.313 329.947 186.528C329.523 196.209 325.556 208.506 313.52 208.514C301.035 208.514 298.03 194.987 296.852 184.759C300.064 185.016 301.674 185.141 304.887 185.365Z"
                fill="#AFD3FC" />
        <g opacity="0.35">
                <path
                        d="M46.8564 325.424C47.2051 327.668 48.6909 328.972 51.0732 328.972C53.4556 328.972 54.7173 327.817 54.7173 325.989C54.7173 323.887 53.5552 323.006 50.21 322.026C45.3872 320.646 43.6689 318.951 43.6689 315.844C43.6689 312.046 46.6572 309.853 50.7246 309.853C55.7134 309.853 57.8218 312.562 58.0625 315.877H54.3188C54.0283 314.074 53.0903 312.803 50.6748 312.803C48.5415 312.803 47.4873 313.816 47.4873 315.478C47.4873 317.231 48.583 317.805 51.7705 318.744C57.2075 320.356 58.5937 322.499 58.5937 325.549C58.5937 329.088 56.2114 331.955 50.8989 331.955C46.2754 331.955 43.3701 329.57 43.0879 325.424H46.8564Z"
                        fill="#AFD3FC" />
                <path
                        d="M75.4614 322.025H65.9902V328.54H76.4326L75.9595 331.689H62.2715V310.127H75.8682V313.301H65.9819V318.843H75.4531V322.025H75.4614Z"
                        fill="#AFD3FC" />
                <path
                        d="M83.4546 322.474V331.689H79.7109V310.127H88.0864C92.0625 310.127 94.8848 312.104 94.8848 315.86C94.8848 318.86 93.2329 320.264 91.4731 320.904C93.6479 321.693 94.478 323.413 94.478 326.18V326.679C94.478 328.615 94.5693 330.451 94.7686 331.681H91.083C90.7759 330.792 90.6929 329.155 90.6929 326.637V326.113C90.6929 323.446 89.7217 322.466 86.6587 322.466H83.4463L83.4546 322.474ZM83.4546 319.425H86.9741C89.3066 319.425 91.0996 318.785 91.0996 316.176C91.0996 314.074 89.6221 313.184 87.5884 313.184H83.4546V319.425Z"
                        fill="#AFD3FC" />
                <path
                        d="M103.775 331.689L96.7695 310.127H100.845L103.883 320.206C104.763 323.114 105.651 326.072 106.075 328.083H106.141C106.581 326.222 107.561 323.097 108.449 320.28L111.645 310.127H115.546L108.316 331.689H103.775Z"
                        fill="#AFD3FC" />
                <path d="M121.946 310.135V331.697H118.145V310.135H121.946Z" fill="#AFD3FC" />
                <path
                        d="M143.378 325.083C142.772 328.648 140.407 332.005 135.036 332.005C128.412 332.005 125.988 327.111 125.988 320.862C125.988 314.614 128.977 309.844 135.21 309.844C140.73 309.844 142.988 313.317 143.271 316.766H139.527C139.054 314.73 138.124 312.944 135.078 312.944C131.268 312.944 129.906 316.749 129.906 320.854C129.906 324.959 131.118 328.939 135.127 328.939C138.116 328.939 139.137 326.978 139.635 325.083H143.387H143.378Z"
                        fill="#AFD3FC" />
                <path
                        d="M159.946 322.025H150.475V328.54H160.917L160.444 331.689H146.756V310.127H160.353V313.301H150.466V318.843H159.937V322.025H159.946Z"
                        fill="#AFD3FC" />
                <path
                        d="M166.927 325.424C167.275 327.667 168.761 328.972 171.144 328.972C173.526 328.972 174.788 327.817 174.788 325.989C174.788 323.887 173.625 323.006 170.28 322.025C165.458 320.646 163.739 318.951 163.739 315.843C163.739 312.046 166.728 309.853 170.795 309.853C175.784 309.853 177.892 312.561 178.133 315.877H174.389C174.099 314.074 173.161 312.802 170.745 312.802C168.612 312.802 167.558 313.816 167.558 315.478C167.558 317.231 168.653 317.804 171.841 318.743C177.278 320.355 178.664 322.499 178.664 325.548C178.664 329.088 176.282 331.955 170.969 331.955C166.346 331.955 163.44 329.57 163.158 325.424H166.927Z"
                        fill="#AFD3FC" />
        </g>
        <g opacity="0.4">
                <path
                        d="M423.506 315.029C423.73 316.5 424.701 317.347 426.262 317.347C427.822 317.347 428.644 316.591 428.644 315.403C428.644 314.024 427.88 313.459 425.697 312.81C422.543 311.905 421.422 310.8 421.422 308.772C421.422 306.288 423.373 304.85 426.038 304.85C429.3 304.85 430.678 306.62 430.835 308.789H428.387C428.196 307.609 427.582 306.778 426.004 306.778C424.61 306.778 423.921 307.443 423.921 308.531C423.921 309.678 424.635 310.052 426.727 310.667C430.279 311.722 431.184 313.118 431.184 315.112C431.184 317.43 429.624 319.3 426.154 319.3C423.132 319.3 421.231 317.746 421.049 315.029H423.514H423.506Z"
                        fill="#AFD3FC" />
                <path
                        d="M442.208 312.811H436.016V317.073H442.847L442.54 319.134H433.592V305.033H442.482V307.11H436.016V310.733H442.208V312.811Z"
                        fill="#AFD3FC" />
                <path
                        d="M447.429 313.11V319.134H444.98V305.033H450.459C453.057 305.033 454.908 306.321 454.908 308.781C454.908 310.742 453.829 311.656 452.675 312.079C454.095 312.594 454.643 313.725 454.643 315.528V315.86C454.643 317.131 454.701 318.328 454.833 319.134H452.426C452.227 318.552 452.169 317.48 452.169 315.835V315.494C452.169 313.749 451.538 313.11 449.529 313.11H447.429ZM447.429 311.115H449.728C451.256 311.115 452.426 310.692 452.426 308.997C452.426 307.626 451.463 307.044 450.127 307.044H447.429V311.124V311.115Z"
                        fill="#AFD3FC" />
                <path
                        d="M460.719 319.134L456.137 305.033H458.801L460.785 311.622C461.358 313.525 461.939 315.461 462.221 316.774H462.263C462.553 315.561 463.192 313.509 463.773 311.672L465.865 305.033H468.414L463.682 319.134H460.71H460.719Z"
                        fill="#AFD3FC" />
                <path d="M472.597 305.033V319.134H470.115V305.033H472.597Z" fill="#AFD3FC" />
                <path
                        d="M486.616 314.813C486.226 317.148 484.674 319.341 481.163 319.341C476.83 319.341 475.244 316.142 475.244 312.054C475.244 307.966 477.203 304.85 481.27 304.85C484.881 304.85 486.359 307.119 486.541 309.371H484.093C483.786 308.041 483.171 306.869 481.187 306.869C478.697 306.869 477.801 309.354 477.801 312.046C477.801 314.738 478.598 317.331 481.212 317.331C483.163 317.331 483.835 316.051 484.159 314.813H486.616Z"
                        fill="#AFD3FC" />
                <path
                        d="M497.45 312.811H491.258V317.073H498.089L497.782 319.134H488.834V305.033H497.724V307.11H491.258V310.733H497.45V312.811Z"
                        fill="#AFD3FC" />
                <path
                        d="M502.006 315.029C502.23 316.5 503.201 317.347 504.762 317.347C506.322 317.347 507.144 316.591 507.144 315.403C507.144 314.024 506.38 313.459 504.197 312.81C501.043 311.905 499.922 310.8 499.922 308.772C499.922 306.288 501.873 304.85 504.538 304.85C507.8 304.85 509.178 306.62 509.335 308.789H506.887C506.696 307.609 506.082 306.778 504.504 306.778C503.11 306.778 502.421 307.443 502.421 308.531C502.421 309.678 503.135 310.052 505.227 310.667C508.779 311.722 509.684 313.118 509.684 315.112C509.684 317.43 508.124 319.3 504.654 319.3C501.632 319.3 499.731 317.746 499.549 315.029H502.014H502.006Z"
                        fill="#AFD3FC" />
        </g>
        <g opacity="0.88">
                <path
                        d="M227.832 237.679C228.222 240.222 229.907 241.693 232.604 241.693C235.302 241.693 236.73 240.388 236.73 238.319C236.73 235.934 235.41 234.946 231.633 233.832C226.171 232.27 224.229 230.351 224.229 226.836C224.229 222.532 227.607 220.047 232.214 220.047C237.859 220.047 240.258 223.113 240.523 226.869H236.282C235.958 224.833 234.887 223.388 232.148 223.388C229.732 223.388 228.537 224.534 228.537 226.42C228.537 228.406 229.774 229.054 233.393 230.118C239.544 231.938 241.121 234.372 241.121 237.821C241.121 241.826 238.423 245.074 232.405 245.074C227.176 245.074 223.88 242.374 223.557 237.671H227.823L227.832 237.679Z"
                        fill="#AFD3FC" />
                <path
                        d="M249.438 223.969H242.648V220.363H260.578V223.969H253.78V244.784H249.438V223.969Z"
                        fill="#AFD3FC" />
                <path
                        d="M268.041 234.347V244.784H263.799V220.371H273.287C277.786 220.371 280.99 222.607 280.99 226.869C280.99 230.268 279.122 231.855 277.122 232.577C279.587 233.475 280.525 235.419 280.525 238.552V239.117C280.525 241.31 280.625 243.388 280.857 244.784H276.682C276.333 243.778 276.242 241.917 276.242 239.075V238.485C276.242 235.461 275.146 234.347 271.676 234.347H268.032H268.041ZM268.041 230.891H272.025C274.665 230.891 276.698 230.159 276.698 227.218C276.698 224.842 275.03 223.828 272.722 223.828H268.041V230.891Z"
                        fill="#AFD3FC" />
                <path
                        d="M289.681 238.427L287.738 244.784H283.488C284.285 242.415 290.22 223.055 291.108 220.371H296.645L304.639 244.784H300.098L298.04 238.427H289.681ZM297.151 234.821C295.45 229.412 294.304 225.872 293.781 223.703H293.731C293.109 226.479 291.947 230.268 290.536 234.821H297.151Z"
                        fill="#AFD3FC" />
                <path
                        d="M309.511 223.969H302.721V220.363H320.65V223.969H313.852V244.784H309.511V223.969Z"
                        fill="#AFD3FC" />
                <path
                        d="M338.804 233.84H328.079V241.219H339.908L339.376 244.784H323.879V220.371H339.277V223.961H328.079V230.234H338.804V233.84Z"
                        fill="#AFD3FC" />
                <path
                        d="M362.786 244.784H359.573C359.416 244.019 359.299 242.922 359.233 241.718C357.971 244.277 355.539 245.141 352.335 245.141C345.96 245.141 342.689 239.773 342.689 232.71C342.689 225.648 346.549 220.039 353.613 220.039C359.2 220.039 362.18 223.122 362.819 227.276H358.594C358.046 225.357 356.784 223.537 353.381 223.537C348.865 223.537 347.122 227.733 347.122 232.727C347.122 237.721 348.89 241.651 353.248 241.651C357.606 241.651 358.502 238.726 358.502 235.12V234.995H352.991V231.306H362.769V244.775L362.786 244.784Z"
                        fill="#AFD3FC" />
                <path
                        d="M372.107 244.784V235.436C372.107 235.17 372.049 234.912 371.908 234.696L364.113 220.371H368.978C370.804 224.102 373.402 229.212 374.464 231.364C376.158 227.874 378.233 223.861 379.959 220.371H384.467L376.598 234.646C376.465 234.854 376.415 235.029 376.415 235.344V244.784H372.115H372.107Z"
                        fill="#AFD3FC" />
        </g>
        <path
                d="M30.6948 373.093L15.3301 376.783V373.883C20.0034 372.852 24.876 371.872 27.6152 371.531V371.506C25.0171 371.016 19.0488 369.446 15.3301 368.581V366.089C18.4678 365.316 24.876 363.696 27.4824 363.264V363.239C24.27 362.757 17.9946 361.186 15.3301 360.63V357.962L30.6948 361.901V364.751C27.2251 365.532 21.6968 366.969 19.1318 367.435V367.46C21.7964 367.967 27.499 369.437 30.6948 370.227V373.068V373.093Z"
                fill="#AFD3FC" />
        <path
                d="M23.8149 346.554V353.318H28.4551V345.856L30.7046 346.188V355.96H15.3398V346.246H17.5977V353.309H21.5488V346.546H23.8149V346.554Z"
                fill="#AFD3FC" />
        <path
                d="M15.3301 343.521V337.755C15.3301 334.589 16.9819 333.018 19.1982 333.018C21.1655 333.018 22.0039 334.148 22.3359 335.004C22.7759 333.899 23.8467 332.503 26.0879 332.503C29.043 332.503 30.7031 334.705 30.7031 337.896V343.529H15.3384L15.3301 343.521ZM21.4727 338.261C21.4727 336.45 20.8335 335.669 19.4556 335.669C18.0776 335.669 17.4219 336.55 17.4219 338.112V340.862H21.4727V338.27V338.261ZM28.6196 340.854V338.095C28.6196 336.492 27.856 335.262 26.0962 335.262C24.4775 335.262 23.5645 336.242 23.5645 338.311V340.854H28.6196Z"
                fill="#AFD3FC" />
        <path
                d="M26.229 327.983C27.8311 327.734 28.7607 326.67 28.7607 324.975C28.7607 323.28 27.939 322.374 26.6357 322.374C25.1333 322.374 24.5107 323.205 23.8135 325.59C22.8257 329.038 21.6221 330.26 19.4058 330.26C16.6997 330.26 15.1309 328.124 15.1309 325.224C15.1309 321.66 17.0566 320.156 19.4224 319.981V322.657C18.1357 322.865 17.231 323.529 17.231 325.258C17.231 326.778 17.9531 327.534 19.1401 327.534C20.3853 327.534 20.8003 326.753 21.4644 324.477C22.6099 320.596 24.1372 319.607 26.312 319.607C28.8355 319.607 30.8774 321.311 30.8774 325.108C30.8774 328.407 29.1758 330.484 26.2207 330.684V327.991L26.229 327.983Z"
                fill="#AFD3FC" />
        <path d="M15.3301 314.256H30.6948V316.973H15.3301V314.256Z" fill="#AFD3FC" />
        <path
                d="M17.5962 307.867V312.146H15.3301V300.837H17.5962V305.125H30.6948V307.858H17.5962V307.867Z"
                fill="#AFD3FC" />
        <path
                d="M23.8149 289.395V296.159H28.4551V288.698L30.7046 289.03V298.801H15.3398V289.088H17.5977V296.151H21.5488V289.387H23.8149V289.395Z"
                fill="#AFD3FC" />
        <path
                d="M15.3301 280.812V275.577C15.3301 271.173 18.061 268.465 22.6763 268.465C27.6816 268.465 30.7031 271.132 30.7031 275.743V280.812H15.3384H15.3301ZM28.5366 278.087V275.802C28.5366 272.81 26.3784 271.281 22.7261 271.281C19.5635 271.281 17.5215 272.844 17.5215 275.777V278.087H28.5366Z"
                fill="#AFD3FC" />
        <path
                d="M23.8149 256.192V262.956H28.4551V255.494L30.7046 255.827V265.598H15.3398V255.885H17.5977V262.947H21.5488V256.184H23.8149V256.192Z"
                fill="#AFD3FC" />
        <path
                d="M30.6948 249.254L15.3301 254.256V251.34L22.5103 249.171C24.5855 248.539 26.6938 247.908 28.1299 247.609V247.567C26.8018 247.252 24.5771 246.554 22.5684 245.922L15.3301 243.637V240.845L30.6948 246.013V249.254Z"
                fill="#AFD3FC" />
        <path
                d="M23.8149 229.578V236.341H28.4551V228.88L30.7046 229.212V238.984H15.3398V229.27H17.5977V236.333H21.5488V229.57H23.8149V229.578Z"
                fill="#AFD3FC" />
        <path
                d="M15.3301 226.545V223.828H28.4536V216.774L30.7031 217.089V226.537H15.3384L15.3301 226.545Z"
                fill="#AFD3FC" />
        <path
                d="M22.9341 202.416C27.3501 202.416 30.9194 204.526 30.9194 209.254C30.9194 213.982 27.3584 215.893 22.9175 215.893C19.0493 215.893 15.123 213.816 15.123 209.046C15.123 204.534 18.7007 202.407 22.9341 202.407V202.416ZM22.9092 213.084C26.1631 213.084 28.728 211.78 28.728 209.138C28.728 206.296 26.2876 205.199 22.9341 205.199C19.8711 205.199 17.3062 206.296 17.3062 209.171C17.3062 212.046 19.7964 213.084 22.9092 213.084Z"
                fill="#AFD3FC" />
        <path
                d="M15.3301 199.565V194.073C15.3301 191.19 16.8159 188.797 19.8125 188.797C22.8091 188.797 24.5356 191.073 24.5356 194.331V196.84H30.6948V199.557H15.3301V199.565ZM22.3691 196.848V194.497C22.3691 192.71 21.7217 191.572 19.8623 191.572C18.2188 191.572 17.5049 192.743 17.5049 194.43V196.856H22.3691V196.848Z"
                fill="#AFD3FC" />
        <path
                d="M24.6855 173.957C21.9961 173.957 18.9331 173.915 17.2397 173.849V173.948C20.2778 174.646 26.3208 176.491 30.6953 177.912V180.297C27.0264 181.36 20.2612 183.246 17.1982 183.911V184.019C18.9912 183.894 22.353 183.828 24.9927 183.828H30.687V186.337H15.3223V182.274C19.2402 181.003 24.9097 179.391 27.1675 178.926V178.892C25.3496 178.568 19.2817 176.566 15.3223 175.236V171.314H30.687V173.94H24.6772L24.6855 173.957Z"
                fill="#AFD3FC" />
        <path
                d="M23.8149 158.311V165.074H28.4551V157.613L30.7046 157.945V167.716H15.3398V158.003H17.5977V165.066H21.5488V158.302H23.8149V158.311Z"
                fill="#AFD3FC" />
        <path
                d="M30.6948 155.286H15.3301V151.788C25.2246 146.686 26.7271 145.913 27.4326 145.664V145.622C25.5317 145.772 23.0332 145.797 20.5264 145.797H15.3301V143.296H30.6948V146.62C19.8789 152.087 18.7417 152.619 18.144 152.876V152.901C20.103 152.793 22.7261 152.785 25.4819 152.785H30.7031V155.278L30.6948 155.286Z"
                fill="#AFD3FC" />
        <path
                d="M17.5962 136.915V141.194H15.3301V129.885H17.5962V134.173H30.6948V136.906H17.5962V136.915Z"
                fill="#AFD3FC" />
        <g opacity="0.5">
                <path
                        d="M229.64 273.675L224.635 252.777H228.569C229.972 259.134 231.3 265.764 231.757 269.478H231.79C232.454 265.947 234.587 257.829 235.758 252.777H239.136C240.19 257.04 242.382 265.756 242.963 269.296H242.996C243.644 264.933 245.777 256.392 246.532 252.777H250.151L244.797 273.675H240.929C239.867 268.955 237.924 261.444 237.285 257.954H237.252C236.563 261.576 234.571 269.329 233.5 273.675H229.648H229.64Z"
                        fill="#AFD3FC" />
                <path
                        d="M265.658 264.302H256.477V270.617H266.604L266.147 273.666H252.883V252.769H266.064V255.843H256.485V261.211H265.666V264.294L265.658 264.302Z"
                        fill="#AFD3FC" />
                <path
                        d="M269.766 252.777H277.594C281.885 252.777 284.027 255.029 284.027 258.037C284.027 260.712 282.5 261.851 281.329 262.308C282.832 262.906 284.724 264.36 284.724 267.401C284.724 271.414 281.744 273.675 277.403 273.675H269.758V252.777H269.766ZM276.913 261.128C279.37 261.128 280.433 260.264 280.433 258.386C280.433 256.508 279.229 255.619 277.121 255.619H273.385V261.128H276.905H276.913ZM273.385 270.849H277.129C279.304 270.849 280.972 269.811 280.972 267.418C280.972 265.216 279.644 263.97 276.83 263.97H273.385V270.849Z"
                        fill="#AFD3FC" />
                <path
                        d="M295.715 252.777H302.82C308.797 252.777 312.474 256.491 312.474 262.765C312.474 269.57 308.855 273.675 302.596 273.675H295.723V252.777H295.715ZM299.417 270.733H302.521C306.581 270.733 308.656 267.792 308.656 262.831C308.656 258.535 306.539 255.752 302.555 255.752H299.417V270.733Z"
                        fill="#AFD3FC" />
                <path
                        d="M329.125 264.302H319.944V270.617H330.071L329.614 273.666H316.35V252.769H329.531V255.843H319.952V261.211H329.133V264.294L329.125 264.302Z"
                        fill="#AFD3FC" />
                <path
                        d="M335.881 267.592C336.221 269.769 337.657 271.032 339.965 271.032C342.272 271.032 343.493 269.911 343.493 268.149C343.493 266.105 342.364 265.257 339.126 264.31C334.453 262.972 332.793 261.336 332.793 258.319C332.793 254.638 335.69 252.511 339.633 252.511C344.464 252.511 346.514 255.137 346.747 258.353H343.119C342.837 256.608 341.932 255.378 339.583 255.378C337.516 255.378 336.495 256.358 336.495 257.97C336.495 259.665 337.558 260.222 340.646 261.136C345.908 262.698 347.261 264.776 347.261 267.734C347.261 271.165 344.954 273.949 339.799 273.949C335.316 273.949 332.502 271.639 332.229 267.617H335.881V267.592Z"
                        fill="#AFD3FC" />
                <path d="M354.51 252.777V273.675H350.824V252.777H354.51Z" fill="#AFD3FC" />
                <path
                        d="M375.625 273.675H372.877C372.745 273.018 372.637 272.079 372.587 271.049C371.508 273.234 369.424 273.982 366.685 273.982C361.231 273.982 358.426 269.387 358.426 263.346C358.426 257.306 361.73 252.503 367.772 252.503C372.554 252.503 375.102 255.145 375.65 258.702H372.031C371.558 257.065 370.479 255.503 367.565 255.503C363.705 255.503 362.211 259.1 362.211 263.371C362.211 267.642 363.73 271.016 367.457 271.016C371.184 271.016 371.956 268.515 371.956 265.424V265.316H367.233V262.158H375.608V273.683L375.625 273.675Z"
                        fill="#AFD3FC" />
                <path
                        d="M379.992 273.675V252.777H384.74C391.663 266.23 392.709 268.265 393.049 269.237H393.099C392.892 266.653 392.867 263.255 392.867 259.848V252.777H396.262V273.675H391.746C384.325 258.967 383.611 257.422 383.254 256.608H383.221C383.371 259.267 383.379 262.839 383.379 266.579V273.675H379.992Z"
                        fill="#AFD3FC" />
        </g>
        <g opacity="0.7">
                <path
                        d="M61.1436 242.615H58.1055C57.9561 241.892 57.8398 240.853 57.79 239.707C56.5947 242.125 54.2954 242.947 51.2656 242.947C45.231 242.947 42.1348 237.87 42.1348 231.173C42.1348 224.476 45.7954 219.175 52.4775 219.175C57.7734 219.175 60.5874 222.1 61.1934 226.03H57.1924C56.6694 224.218 55.4741 222.49 52.2534 222.49C47.9785 222.49 46.3267 226.47 46.3267 231.19C46.3267 235.909 48.0034 239.64 52.1289 239.64C56.2544 239.64 57.1094 236.873 57.1094 233.458V233.334H51.8882V229.844H61.1519V242.598L61.1436 242.615Z"
                        fill="#AFD3FC" />
                <path
                        d="M69.9922 232.735V242.615H65.9746V219.499H74.9561C79.2227 219.499 82.2441 221.618 82.2441 225.648C82.2441 228.863 80.4761 230.367 78.5835 231.048C80.916 231.896 81.8125 233.741 81.8125 236.707V237.247C81.8125 239.324 81.9038 241.294 82.1279 242.615H78.1768C77.853 241.659 77.7617 239.906 77.7617 237.206V236.649C77.7617 233.79 76.7241 232.735 73.437 232.735H69.9922ZM69.9922 229.461H73.7607C76.2676 229.461 78.1851 228.772 78.1851 225.98C78.1851 223.728 76.5996 222.773 74.4165 222.773H69.9839V229.461H69.9922Z"
                        fill="#AFD3FC" />
                <path
                        d="M90.478 236.591L88.6353 242.615H84.6094C85.3647 240.371 90.9844 222.041 91.8228 219.499H97.0688L104.631 242.615H100.331L98.3887 236.591H90.4697H90.478ZM97.5503 233.184C95.9399 228.065 94.8525 224.709 94.3545 222.656H94.313C93.7236 225.282 92.6279 228.871 91.2832 233.184H97.5503Z"
                        fill="#AFD3FC" />
                <path
                        d="M107.66 219.499H115.911C120.236 219.499 123.83 221.734 123.83 226.237C123.83 230.741 120.41 233.342 115.521 233.342H111.752V242.615H107.668V219.499H107.66ZM111.744 230.085H115.28C117.961 230.085 119.671 229.112 119.671 226.321C119.671 223.844 117.92 222.773 115.38 222.773H111.736V230.085H111.744Z"
                        fill="#AFD3FC" />
                <path
                        d="M127.418 219.499H131.494V228.83H140.732V219.499H144.816V242.615H140.732V232.245H131.494V242.615H127.418V219.499Z"
                        fill="#AFD3FC" />
                <path d="M154.32 219.499V242.615H150.244V219.499H154.32Z" fill="#AFD3FC" />
                <path
                        d="M177.304 235.527C176.657 239.358 174.117 242.947 168.356 242.947C161.259 242.947 158.652 237.704 158.652 230.999C158.652 224.293 161.856 219.183 168.539 219.183C174.457 219.183 176.881 222.906 177.18 226.603H173.17C172.664 224.426 171.668 222.507 168.406 222.507C164.322 222.507 162.861 226.587 162.861 230.99C162.861 235.394 164.164 239.665 168.456 239.665C171.66 239.665 172.755 237.563 173.287 235.535H177.312L177.304 235.527Z"
                        fill="#AFD3FC" />
                <path
                        d="M43.7695 250.376H53.2822C61.2759 250.376 66.1982 255.344 66.1982 263.737C66.1982 272.843 61.3506 278.336 52.9751 278.336H43.7778V250.367L43.7695 250.376ZM48.7251 274.406H52.8755C58.3125 274.406 61.085 270.475 61.085 263.828C61.085 258.078 58.2544 254.356 52.917 254.356H48.7251V274.406Z"
                        fill="#AFD3FC" />
                <path
                        d="M88.4951 265.806H76.2017V274.256H89.7485L89.1343 278.344H71.3789V250.376H89.0181V254.489H76.1934V261.676H88.4868V265.806H88.4951Z"
                        fill="#AFD3FC" />
                <path
                        d="M97.5415 270.21C97.9897 273.126 99.9155 274.813 103.012 274.813C106.108 274.813 107.735 273.317 107.735 270.949C107.735 268.215 106.224 267.085 101.891 265.806C95.6323 264.011 93.4077 261.817 93.4077 257.787C93.4077 252.852 97.2842 250.01 102.563 250.01C109.03 250.01 111.777 253.516 112.084 257.829H107.229C106.855 255.494 105.635 253.841 102.497 253.841C99.7329 253.841 98.3633 255.153 98.3633 257.314C98.3633 259.582 99.7827 260.33 103.925 261.551C110.972 263.637 112.773 266.421 112.773 270.376C112.773 274.971 109.686 278.693 102.788 278.693C96.7944 278.693 93.0176 275.602 92.6523 270.218H97.5332L97.5415 270.21Z"
                        fill="#AFD3FC" />
                <path d="M122.478 250.376V278.344H117.547V250.376H122.478Z" fill="#AFD3FC" />
                <path
                        d="M150.742 278.344H147.065C146.882 277.472 146.75 276.217 146.675 274.829C145.23 277.763 142.441 278.751 138.781 278.751C131.476 278.751 127.732 272.603 127.732 264.509C127.732 256.416 132.157 249.993 140.25 249.993C146.65 249.993 150.062 253.525 150.8 258.286H145.953C145.322 256.092 143.877 254.007 139.984 254.007C134.813 254.007 132.821 258.818 132.821 264.534C132.821 270.251 134.846 274.763 139.835 274.763C144.824 274.763 145.861 271.414 145.861 267.285V267.135H139.544V262.914H150.75V278.344H150.742Z"
                        fill="#AFD3FC" />
                <path
                        d="M156.595 278.344V250.376H162.945C172.217 268.382 173.611 271.115 174.068 272.403H174.134C173.86 268.947 173.819 264.393 173.819 259.84V250.376H178.359V278.344H172.316C162.38 258.652 161.426 256.591 160.944 255.494H160.903C161.11 259.059 161.11 263.837 161.11 268.847V278.344H156.578H156.595Z"
                        fill="#AFD3FC" />
        </g>
        <g opacity="0.53">
                <path
                        d="M340.921 193.99V201.684C340.921 203.238 341.411 204.534 343.37 204.534C345.329 204.534 345.76 203.296 345.76 201.684V193.99H347.918V201.742C347.918 204.285 346.848 206.263 343.32 206.263C339.792 206.263 338.779 204.443 338.779 201.784V193.99H340.921Z"
                        fill="#AFD3FC" />
                <path d="M352.766 193.99V206.088H350.633V193.99H352.766Z" fill="#AFD3FC" />
                <path d="M354.766 206.262L358.917 193.832H360.502L356.36 206.262H354.758H354.766Z"
                        fill="#AFD3FC" />
                <path
                        d="M364.495 193.99V201.684C364.495 203.238 364.985 204.534 366.944 204.534C368.903 204.534 369.334 203.296 369.334 201.684V193.99H371.493V201.742C371.493 204.285 370.422 206.263 366.894 206.263C363.366 206.263 362.354 204.443 362.354 201.784V193.99H364.495Z"
                        fill="#AFD3FC" />
                <path
                        d="M380.05 206.088L377.443 201.518H377.427L374.812 206.088H372.529L376.248 199.989L372.637 193.99H375.086L377.543 198.302L377.56 198.286L380.075 193.982H382.341L378.738 199.781L382.482 206.08H380.05V206.088Z"
                        fill="#AFD3FC" />
        </g>
        <path
                d="M256.892 300.23C256.892 311.066 251.729 319.815 240.157 319.815C228.586 319.815 223.904 311.099 223.904 300.189C223.904 290.708 228.993 281.086 240.655 281.086C251.687 281.086 256.892 289.852 256.892 300.23ZM230.794 300.172C230.794 308.141 233.99 314.439 240.456 314.439C247.404 314.439 250.085 308.456 250.085 300.239C250.085 292.727 247.396 286.437 240.373 286.437C233.351 286.437 230.794 292.544 230.794 300.164V300.172Z"
                fill="#AFD3FC" />
        <path
                d="M263.874 319.258V281.585H272.432C284.916 305.831 286.8 309.512 287.415 311.257H287.506C287.141 306.595 287.083 300.471 287.083 294.331V281.585H293.2V319.258H285.057C271.676 292.736 270.381 289.952 269.742 288.49H269.684C269.958 293.284 269.966 299.732 269.966 306.471V319.258H263.865H263.874Z"
                fill="#AFD3FC" />
        <path d="M302.057 281.593H308.697V313.758H325.955L325.174 319.258H302.057V281.585V281.593Z"
                fill="#AFD3FC" />
        <path d="M337.617 281.593V319.267H330.977V281.593H337.617Z" fill="#AFD3FC" />
        <path
                d="M346.483 319.258V281.585H355.041C367.525 305.831 369.41 309.512 370.024 311.257H370.115C369.75 306.595 369.692 300.471 369.692 294.331V281.585H375.81V319.258H367.667C354.286 292.736 352.991 289.952 352.352 288.49H352.293C352.567 293.284 352.576 299.732 352.576 306.471V319.258H346.475H346.483Z"
                fill="#AFD3FC" />
        <path
                d="M407.708 302.374H391.157V313.758H409.41L408.588 319.258H384.674V281.585H408.439V287.127H391.165V296.807H407.717V302.366L407.708 302.374Z"
                fill="#AFD3FC" />
        <path
                d="M256.021 350.883C256.021 344.285 256.112 336.782 256.278 332.636H256.029C254.319 340.081 249.812 354.905 246.326 365.623H240.482C237.884 356.616 233.269 340.048 231.633 332.545H231.368C231.683 336.932 231.824 345.175 231.824 351.656V365.615H225.682V327.941H235.626C238.739 337.547 242.682 351.448 243.819 356.982H243.894C244.682 352.528 249.588 337.638 252.842 327.941H262.446V365.615H256.021V350.875V350.883Z"
                fill="#AFD3FC" />
        <path
                d="M276.681 355.81L273.685 365.623H267.127C268.355 361.967 277.511 332.096 278.889 327.95H287.439L299.766 365.623H292.76L289.589 355.81H276.689H276.681ZM288.211 350.251C285.58 341.909 283.82 336.442 283.006 333.101H282.932C281.977 337.381 280.184 343.23 278.001 350.251H288.211Z"
                fill="#AFD3FC" />
        <path
                d="M311.229 349.52V365.623H304.688V327.95H319.33C326.278 327.95 331.217 331.398 331.217 337.979C331.217 343.222 328.328 345.673 325.249 346.787C329.05 348.166 330.503 351.174 330.503 356.001V356.882C330.503 360.272 330.661 363.48 331.009 365.632H324.568C324.037 364.07 323.887 361.211 323.887 356.824V355.91C323.887 351.249 322.194 349.529 316.84 349.529H311.22L311.229 349.52ZM311.229 344.186H317.371C321.447 344.186 324.584 343.064 324.584 338.511C324.584 334.838 322.003 333.284 318.45 333.284H311.229V344.186Z"
                fill="#AFD3FC" />
        <path
                d="M338.273 327.95H344.798V345.864C348.874 340.854 355.182 333.209 359.424 327.95H367.376L354.12 343.272L368.181 365.623H360.229L349.554 347.676L344.848 352.744V365.632H338.282V327.958L338.273 327.95Z"
                fill="#AFD3FC" />
        <path
                d="M394.833 348.731H378.282V360.114H396.535L395.713 365.615H371.799V327.941H395.564V333.484H378.29V343.164H394.842V348.723L394.833 348.731Z"
                fill="#AFD3FC" />
        <path
                d="M410.231 333.509H399.756V327.95H427.422V333.509H416.93V365.623H410.24V333.509H410.231Z"
                fill="#AFD3FC" />
        <path d="M439.027 327.95V365.623H432.387V327.95H439.027Z" fill="#AFD3FC" />
        <path
                d="M447.893 365.623V327.95H456.451C468.936 352.204 470.82 355.877 471.434 357.622H471.525C471.16 352.96 471.102 346.836 471.102 340.696V327.95H477.22V365.623H469.077C455.696 339.101 454.401 336.317 453.762 334.855H453.704C453.978 339.649 453.986 346.097 453.986 352.836V365.632H447.885L447.893 365.623Z"
                fill="#AFD3FC" />
        <path
                d="M515.278 365.623H510.331C510.09 364.443 509.899 362.757 509.808 360.887C507.857 364.834 504.113 366.172 499.174 366.172C489.338 366.172 484.291 357.896 484.291 346.994C484.291 336.093 490.251 327.443 501.15 327.443C509.774 327.443 514.365 332.204 515.353 338.61H508.828C507.981 335.652 506.031 332.844 500.785 332.844C493.82 332.844 491.131 339.325 491.131 347.027C491.131 354.73 493.862 360.804 500.585 360.804C507.309 360.804 508.695 356.292 508.695 350.725V350.526H500.187V344.834H515.278V365.615V365.623Z"
                fill="#AFD3FC" />
        <g opacity="0.45">
                <path
                        d="M186.244 408.457V398.212C186.244 392.587 189.183 389.795 193.117 389.795C196.612 389.795 198.106 391.797 198.695 393.318C199.476 391.349 201.385 388.873 205.353 388.873C210.599 388.873 213.545 392.778 213.545 398.453V408.457H186.252H186.244ZM197.16 399.101C197.16 395.877 196.022 394.49 193.574 394.49C191.125 394.49 189.963 396.06 189.963 398.819V403.704H197.16V399.093V399.101ZM209.86 403.713V398.81C209.86 395.969 208.499 393.783 205.377 393.783C202.505 393.783 200.87 395.528 200.87 399.201V403.713H209.86Z"
                        fill="#AFD3FC" />
                <path
                        d="M201.874 379.442H213.545V384.194H186.252V373.567C186.252 368.523 188.75 364.942 193.515 364.942C197.317 364.942 199.093 367.036 199.898 369.271C200.903 366.513 203.078 365.457 206.581 365.457H207.22C209.677 365.457 212.001 365.349 213.553 365.083V369.761C212.424 370.144 210.349 370.252 207.17 370.252H206.514C203.136 370.252 201.891 371.481 201.891 375.37V379.45L201.874 379.442ZM198.014 379.442V374.98C198.014 372.022 197.201 369.745 193.905 369.745C191.241 369.745 190.12 371.614 190.12 374.199V379.442H198.022H198.014Z"
                        fill="#AFD3FC" />
                <path
                        d="M206.432 355.204L213.537 357.381V362.142C210.889 361.253 189.249 354.606 186.244 353.6V347.393L213.537 338.444V343.53L206.432 345.831V355.204ZM202.406 346.837C196.363 348.748 192.403 350.027 189.979 350.609V350.659C193.076 351.357 197.317 352.653 202.406 354.24V346.828V346.837Z"
                        fill="#AFD3FC" />
                <path
                        d="M213.545 334.88H186.252V328.664C203.825 319.599 206.49 318.228 207.751 317.788V317.721C204.373 317.987 199.94 318.029 195.483 318.029H186.244V313.583H213.537V319.499C194.321 329.221 192.304 330.152 191.241 330.617V330.659C194.719 330.459 199.384 330.459 204.273 330.459H213.545V334.888V334.88Z"
                        fill="#AFD3FC" />
                <path
                        d="M186.244 307.16V297.863C186.244 290.044 191.092 285.233 199.285 285.233C208.175 285.233 213.537 289.977 213.537 298.17V307.169H186.244V307.16ZM209.702 302.316V298.253C209.702 292.935 205.867 290.226 199.376 290.226C193.765 290.226 190.137 292.993 190.137 298.212V302.316H209.702Z"
                        fill="#AFD3FC" />
                <path d="M186.244 275.336H213.537V280.156H186.244V275.336Z" fill="#AFD3FC" />
                <path
                        d="M213.545 268.905H186.252V262.69C203.825 253.625 206.49 252.254 207.751 251.813V251.747C204.373 252.013 199.94 252.054 195.483 252.054H186.244V247.609H213.537V253.525C194.321 263.247 192.304 264.177 191.241 264.643V264.684C194.719 264.485 199.384 264.485 204.273 264.485H213.545V268.914V268.905Z"
                        fill="#AFD3FC" />
                <path
                        d="M213.545 219.989V223.587C212.69 223.762 211.47 223.895 210.117 223.961C212.98 225.374 213.943 228.099 213.943 231.68C213.943 238.826 207.942 242.49 200.048 242.49C192.154 242.49 185.887 238.161 185.887 230.251C185.887 223.986 189.34 220.654 193.98 219.939V224.676C191.838 225.291 189.805 226.703 189.805 230.517C189.805 235.577 194.503 237.53 200.081 237.53C205.659 237.53 210.059 235.544 210.059 230.667C210.059 225.789 206.788 224.775 202.754 224.775H202.613V230.949H198.487V219.989H213.545Z"
                        fill="#AFD3FC" />
        </g>
        <path
                d="M50.5918 297.912C50.3179 299.524 49.2554 301.028 46.8315 301.028C43.8516 301.028 42.7559 298.826 42.7559 296.009C42.7559 293.193 44.1006 291.049 46.9062 291.049C49.3965 291.049 50.4092 292.611 50.5337 294.165H48.8486C48.6328 293.251 48.2178 292.445 46.8481 292.445C45.1299 292.445 44.5156 294.156 44.5156 296.009C44.5156 297.862 45.0635 299.649 46.8647 299.649C48.2095 299.649 48.6743 298.768 48.8984 297.912H50.5918Z"
                fill="#AFD3FC" />
        <path
                d="M53.7964 296.741V300.895H52.1113V291.182H55.8882C57.6812 291.182 58.9512 292.071 58.9512 293.766C58.9512 295.12 58.2041 295.752 57.4155 296.034C58.395 296.392 58.7686 297.164 58.7686 298.411V298.635C58.7686 299.508 58.8101 300.339 58.9014 300.887H57.2412C57.1001 300.488 57.0669 299.749 57.0669 298.619V298.386C57.0669 297.181 56.627 296.741 55.249 296.741H53.8047H53.7964ZM53.7964 295.361H55.3818C56.436 295.361 57.2412 295.071 57.2412 293.899C57.2412 292.952 56.5772 292.553 55.6558 292.553H53.7964V295.361Z"
                fill="#AFD3FC" />
        <path
                d="M66.7051 296.533H62.4385V299.466H67.145L66.9292 300.887H60.7617V291.174H66.8877V292.603H62.4302V295.095H66.6968V296.525L66.7051 296.533Z"
                fill="#AFD3FC" />
        <path
                d="M70.5063 298.361L69.7344 300.887H68.041C68.3564 299.948 70.7222 292.245 71.0708 291.174H73.2705L76.4497 300.887H74.6401L73.8267 298.361H70.498H70.5063ZM73.478 296.932C72.7974 294.78 72.3491 293.376 72.1333 292.511H72.1167C71.8677 293.616 71.4111 295.12 70.8467 296.932H73.478Z"
                fill="#AFD3FC" />
        <path d="M78.4009 292.611H75.7031V291.174H82.8335V292.611H80.1274V300.887H78.4009V292.611Z"
                fill="#AFD3FC" />
        <path d="M85.8213 291.182V300.895H84.1113V291.182H85.8213Z" fill="#AFD3FC" />
        <path
                d="M90.2031 300.887L87.0488 291.174H88.8833L90.2529 295.71C90.6514 297.023 91.0498 298.353 91.2407 299.258H91.2656C91.4648 298.419 91.9048 297.015 92.3032 295.744L93.7393 291.165H95.499L92.2451 300.879H90.2031V300.887Z"
                fill="#AFD3FC" />
        <path
                d="M102.613 296.533H98.3467V299.466H103.053L102.837 300.887H96.6699V291.174H102.796V292.603H98.3384V295.095H102.605V296.525L102.613 296.533Z"
                fill="#AFD3FC" />
        <path
                d="M108.025 291.182H111.329C114.102 291.182 115.812 292.91 115.812 295.827C115.812 298.992 114.126 300.895 111.221 300.895H108.025V291.182ZM109.752 299.524H111.196C113.081 299.524 114.043 298.162 114.043 295.852C114.043 293.857 113.064 292.561 111.205 292.561H109.752V299.524Z"
                fill="#AFD3FC" />
        <path d="M119.323 291.182V300.895H117.613V291.182H119.323Z" fill="#AFD3FC" />
        <path
                d="M123.298 296.741V300.895H121.613V291.182H125.39C127.183 291.182 128.453 292.071 128.453 293.766C128.453 295.12 127.706 295.752 126.917 296.034C127.897 296.392 128.271 297.164 128.271 298.411V298.635C128.271 299.508 128.312 300.339 128.403 300.887H126.743C126.602 300.488 126.569 299.749 126.569 298.619V298.386C126.569 297.181 126.129 296.741 124.751 296.741H123.307H123.298ZM123.298 295.361H124.884C125.938 295.361 126.743 295.071 126.743 293.899C126.743 292.952 126.079 292.553 125.158 292.553H123.298V295.361Z"
                fill="#AFD3FC" />
        <path
                d="M136.207 296.533H131.94V299.466H136.647L136.431 300.887H130.264V291.174H136.39V292.603H131.932V295.095H136.199V296.525L136.207 296.533Z"
                fill="#AFD3FC" />
        <path
                d="M145.586 297.912C145.312 299.524 144.25 301.028 141.826 301.028C138.846 301.028 137.75 298.826 137.75 296.009C137.75 293.193 139.095 291.049 141.9 291.049C144.391 291.049 145.403 292.611 145.528 294.165H143.843C143.627 293.251 143.212 292.445 141.842 292.445C140.124 292.445 139.51 294.156 139.51 296.009C139.51 297.862 140.058 299.649 141.859 299.649C143.204 299.649 143.668 298.768 143.893 297.912H145.586Z"
                fill="#AFD3FC" />
        <path d="M149.098 292.611H146.4V291.174H153.531V292.611H150.825V300.887H149.098V292.611Z"
                fill="#AFD3FC" />
        <path d="M156.519 291.182V300.895H154.809V291.182H156.519Z" fill="#AFD3FC" />
        <path
                d="M166.844 295.984C166.844 298.776 165.516 301.036 162.528 301.036C159.54 301.036 158.336 298.785 158.336 295.976C158.336 293.533 159.647 291.049 162.652 291.049C165.5 291.049 166.836 293.309 166.836 295.984H166.844ZM160.121 295.968C160.121 298.02 160.942 299.649 162.611 299.649C164.404 299.649 165.093 298.103 165.093 295.984C165.093 294.048 164.404 292.428 162.586 292.428C160.768 292.428 160.112 293.999 160.112 295.968H160.121Z"
                fill="#AFD3FC" />
        <path
                d="M168.647 300.887V291.174H170.855C174.076 297.422 174.557 298.378 174.715 298.826H174.74C174.648 297.621 174.632 296.043 174.632 294.464V291.174H176.209V300.887H174.109C170.656 294.049 170.324 293.334 170.158 292.952H170.141C170.216 294.19 170.216 295.852 170.216 297.588V300.887H168.639H168.647Z"
                fill="#AFD3FC" />
        <g opacity="0.5">
                <path
                        d="M230.994 386.654H229.716C229.649 386.346 229.608 385.914 229.583 385.432C229.077 386.454 228.114 386.795 226.835 386.795C224.295 386.795 222.992 384.66 222.992 381.843C222.992 379.026 224.528 376.791 227.342 376.791C229.566 376.791 230.753 378.021 231.011 379.674H229.326C229.11 378.91 228.603 378.187 227.25 378.187C225.449 378.187 224.76 379.857 224.76 381.851C224.76 383.845 225.466 385.407 227.201 385.407C228.936 385.407 229.292 384.244 229.292 382.807V382.757H227.093V381.286H230.994V386.654Z"
                        fill="#AFD3FC" />
                <path
                        d="M234.721 382.491V386.645H233.027V376.915H236.812C238.605 376.915 239.884 377.804 239.884 379.508C239.884 380.862 239.137 381.494 238.34 381.784C239.319 382.142 239.701 382.914 239.701 384.161V384.385C239.701 385.258 239.743 386.089 239.834 386.645H238.174C238.033 386.246 238 385.507 238 384.369V384.136C238 382.931 237.56 382.491 236.182 382.491H234.729H234.721ZM234.721 381.111H236.306C237.36 381.111 238.166 380.821 238.166 379.649C238.166 378.702 237.501 378.303 236.58 378.303H234.712V381.12L234.721 381.111Z"
                        fill="#AFD3FC" />
                <path
                        d="M243.336 384.119L242.564 386.654H240.871C241.187 385.706 243.552 377.995 243.909 376.924H246.117L249.305 386.654H247.495L246.673 384.119H243.345H243.336ZM246.316 382.682C245.636 380.53 245.179 379.117 244.972 378.253H244.955C244.706 379.358 244.241 380.87 243.677 382.682H246.316Z"
                        fill="#AFD3FC" />
                <path
                        d="M250.566 376.924H254.036C255.854 376.924 257.365 377.863 257.365 379.757C257.365 381.651 255.929 382.748 253.87 382.748H252.285V386.654H250.566V376.924ZM252.293 381.377H253.779C254.908 381.377 255.63 380.97 255.63 379.79C255.63 378.752 254.891 378.303 253.829 378.303H252.293V381.377Z"
                        fill="#AFD3FC" />
                <path
                        d="M258.893 376.924H260.611V380.854H264.504V376.924H266.222V386.654H264.504V382.291H260.611V386.654H258.893V376.924Z"
                        fill="#AFD3FC" />
                <path d="M270.207 376.924V386.654H268.488V376.924H270.207Z" fill="#AFD3FC" />
                <path
                        d="M279.886 383.671C279.612 385.283 278.541 386.795 276.117 386.795C273.129 386.795 272.033 384.585 272.033 381.768C272.033 378.951 273.386 376.799 276.192 376.799C278.682 376.799 279.703 378.369 279.828 379.923H278.143C277.927 379.009 277.512 378.195 276.134 378.195C274.416 378.195 273.801 379.915 273.801 381.768C273.801 383.621 274.349 385.416 276.159 385.416C277.503 385.416 277.968 384.527 278.192 383.679H279.886V383.671Z"
                        fill="#AFD3FC" />
                <path
                        d="M285.23 376.924H288.542C291.323 376.924 293.033 378.652 293.033 381.577C293.033 384.742 291.348 386.654 288.435 386.654H285.23V376.924ZM286.957 385.283H288.401C290.294 385.283 291.257 383.912 291.257 381.602C291.257 379.599 290.269 378.311 288.418 378.311H286.957V385.283Z"
                        fill="#AFD3FC" />
                <path
                        d="M300.788 382.291H296.513V385.233H301.228L301.012 386.654H294.836V376.924H300.97V378.353H296.504V380.854H300.779V382.291H300.788Z"
                        fill="#AFD3FC" />
                <path
                        d="M303.932 383.82C304.09 384.834 304.762 385.424 305.833 385.424C306.904 385.424 307.477 384.9 307.477 384.078C307.477 383.131 306.954 382.732 305.443 382.291C303.268 381.668 302.496 380.904 302.496 379.5C302.496 377.788 303.841 376.791 305.684 376.791C307.933 376.791 308.888 378.012 308.996 379.508H307.302C307.169 378.694 306.746 378.12 305.659 378.12C304.696 378.12 304.223 378.577 304.223 379.325C304.223 380.114 304.712 380.372 306.157 380.796C308.605 381.527 309.236 382.491 309.236 383.87C309.236 385.465 308.157 386.762 305.758 386.762C303.675 386.762 302.363 385.69 302.23 383.812H303.932V383.82Z"
                        fill="#AFD3FC" />
                <path d="M312.607 376.924V386.654H310.889V376.924H312.607Z" fill="#AFD3FC" />
                <path
                        d="M322.436 386.654H321.157C321.091 386.346 321.049 385.914 321.024 385.432C320.518 386.454 319.555 386.795 318.277 386.795C315.737 386.795 314.434 384.66 314.434 381.843C314.434 379.026 315.969 376.791 318.783 376.791C321.008 376.791 322.195 378.021 322.452 379.674H320.767C320.551 378.91 320.045 378.187 318.692 378.187C316.891 378.187 316.202 379.857 316.202 381.851C316.202 383.845 316.907 385.407 318.642 385.407C320.377 385.407 320.734 384.244 320.734 382.807V382.757H318.534V381.286H322.436V386.654Z"
                        fill="#AFD3FC" />
                <path
                        d="M324.477 386.654V376.924H326.685C329.914 383.189 330.395 384.136 330.553 384.585H330.578C330.486 383.38 330.47 381.801 330.47 380.214V376.924H332.047V386.654H329.947C326.494 379.807 326.153 379.084 325.996 378.71H325.979C326.045 379.948 326.054 381.61 326.054 383.355V386.662H324.477V386.654Z"
                        fill="#AFD3FC" />
        </g>
        <path
                d="M52.311 340.347V363.779C52.311 368.507 53.7969 372.445 59.7568 372.445C65.7168 372.445 67.0449 368.681 67.0449 363.762V340.347H73.6191V363.937C73.6191 371.664 70.3652 377.705 59.6157 377.705C48.8662 377.705 45.7949 372.163 45.7949 364.061V340.339H52.3193L52.311 340.347Z"
                fill="#AFD3FC" />
        <path d="M88.3525 340.347V377.173H81.8613V340.347H88.3525Z" fill="#AFD3FC" />
        <path d="M94.4453 377.696L107.087 339.848H111.918L99.3179 377.696H94.4536H94.4453Z"
                fill="#AFD3FC" />
        <path
                d="M124.063 340.347V363.779C124.063 368.507 125.549 372.445 131.509 372.445C137.469 372.445 138.797 368.681 138.797 363.762V340.347H145.371V363.937C145.371 371.664 142.117 377.705 131.368 377.705C120.618 377.705 117.547 372.163 117.547 364.061V340.339H124.071L124.063 340.347Z"
                fill="#AFD3FC" />
        <path
                d="M171.402 377.173L163.467 363.255H163.417L155.465 377.173H148.525L159.856 358.61L148.857 340.347H156.303L163.774 353.484L163.824 353.45L171.485 340.355H178.375L167.401 358.004L178.807 377.181H171.402V377.173Z"
                fill="#AFD3FC" />
        <path
                d="M426.834 284.244C426.619 285.523 425.764 286.728 423.838 286.728C421.456 286.728 420.584 284.967 420.584 282.723C420.584 280.48 421.655 278.768 423.896 278.768C425.88 278.768 426.693 280.014 426.793 281.252H425.448C425.282 280.521 424.942 279.881 423.854 279.881C422.485 279.881 421.995 281.253 421.995 282.723C421.995 284.194 422.435 285.631 423.871 285.631C424.942 285.631 425.315 284.925 425.49 284.244H426.834Z"
                fill="#AFD3FC" />
        <path
                d="M429.39 283.313V286.62H428.045V278.876H431.058C432.486 278.876 433.499 279.582 433.499 280.937C433.499 282.017 432.909 282.515 432.27 282.748C433.05 283.031 433.349 283.654 433.349 284.643V284.825C433.349 285.523 433.382 286.18 433.457 286.62H432.129C432.021 286.296 431.988 285.714 431.988 284.809V284.618C431.988 283.662 431.639 283.305 430.543 283.305H429.39V283.313ZM429.39 282.216H430.651C431.49 282.216 432.137 281.984 432.137 281.053C432.137 280.297 431.606 279.981 430.876 279.981H429.39V282.225V282.216Z"
                fill="#AFD3FC" />
        <path
                d="M439.675 283.147H436.272V285.49H440.023L439.857 286.62H434.943V278.876H439.824V280.014H436.272V282.009H439.675V283.155V283.147Z"
                fill="#AFD3FC" />
        <path
                d="M442.705 284.601L442.091 286.62H440.746C440.995 285.872 442.879 279.732 443.162 278.876H444.921L447.453 286.62H446.017L445.361 284.601H442.713H442.705ZM445.079 283.463C444.54 281.751 444.174 280.621 444.008 279.94H443.992C443.793 280.82 443.427 282.017 442.979 283.463H445.079Z"
                fill="#AFD3FC" />
        <path d="M448.998 280.023H446.848V278.876H452.534V280.023H450.375V286.62H448.998V280.023Z"
                fill="#AFD3FC" />
        <path d="M454.916 278.876V286.62H453.555V278.876H454.916Z" fill="#AFD3FC" />
        <path
                d="M458.402 286.62L455.887 278.876H457.356L458.443 282.499C458.759 283.546 459.082 284.609 459.232 285.332H459.257C459.415 284.667 459.763 283.537 460.087 282.532L461.232 278.884H462.635L460.037 286.628H458.41L458.402 286.62Z"
                fill="#AFD3FC" />
        <path
                d="M468.296 283.147H464.893V285.49H468.645L468.479 286.62H463.564V278.876H468.445V280.014H464.893V282.009H468.296V283.155V283.147Z"
                fill="#AFD3FC" />
        <path
                d="M420.949 290.509H423.581C425.797 290.509 427.158 291.888 427.158 294.206C427.158 296.732 425.813 298.253 423.498 298.253H420.949V290.509ZM422.327 297.164H423.481C424.983 297.164 425.755 296.076 425.755 294.24C425.755 292.644 424.975 291.614 423.498 291.614H422.335V297.164H422.327Z"
                fill="#AFD3FC" />
        <path d="M429.955 290.509V298.253H428.594V290.509H429.955Z" fill="#AFD3FC" />
        <path
                d="M433.126 294.946V298.253H431.781V290.509H434.794C436.222 290.509 437.235 291.215 437.235 292.569C437.235 293.65 436.646 294.148 436.006 294.381C436.787 294.663 437.085 295.287 437.085 296.275V296.458C437.085 297.156 437.119 297.813 437.193 298.253H435.865C435.757 297.929 435.724 297.347 435.724 296.441V296.25C435.724 295.295 435.375 294.938 434.28 294.938H433.126V294.946ZM433.126 293.849H434.388C435.226 293.849 435.874 293.616 435.874 292.686C435.874 291.93 435.342 291.614 434.612 291.614H433.126V293.857V293.849Z"
                fill="#AFD3FC" />
        <path
                d="M443.411 294.78H440.008V297.123H443.76L443.594 298.253H438.68V290.509H443.561V291.647H440.008V293.641H443.411V294.788V294.78Z"
                fill="#AFD3FC" />
        <path
                d="M450.897 295.877C450.681 297.156 449.826 298.361 447.9 298.361C445.518 298.361 444.646 296.599 444.646 294.356C444.646 292.113 445.717 290.401 447.958 290.401C449.942 290.401 450.756 291.647 450.856 292.885H449.511C449.345 292.154 449.004 291.514 447.917 291.514C446.547 291.514 446.058 292.885 446.058 294.356C446.058 295.827 446.498 297.264 447.934 297.264C449.004 297.264 449.378 296.558 449.552 295.877H450.897Z"
                fill="#AFD3FC" />
        <path d="M453.687 291.655H451.537V290.509H457.223V291.655H455.065V298.253H453.687V291.655Z"
                fill="#AFD3FC" />
        <path d="M459.605 290.509V298.253H458.244V290.509H459.605Z" fill="#AFD3FC" />
        <path
                d="M467.84 294.339C467.84 296.566 466.777 298.361 464.403 298.361C462.029 298.361 461.066 296.566 461.066 294.323C461.066 292.378 462.112 290.393 464.511 290.393C466.777 290.393 467.848 292.196 467.848 294.331L467.84 294.339ZM462.478 294.331C462.478 295.968 463.133 297.264 464.461 297.264C465.889 297.264 466.437 296.034 466.437 294.348C466.437 292.802 465.881 291.514 464.445 291.514C463.009 291.514 462.478 292.769 462.478 294.339V294.331Z"
                fill="#AFD3FC" />
        <path
                d="M469.268 298.253V290.509H471.027C473.592 295.494 473.982 296.25 474.107 296.608H474.124C474.049 295.652 474.041 294.389 474.041 293.126V290.509H475.302V298.253H473.625C470.878 292.802 470.612 292.229 470.479 291.93H470.471C470.529 292.918 470.529 294.24 470.529 295.627V298.253H469.276H469.268Z"
                fill="#AFD3FC" />
        <g opacity="0.8">
                <path
                        d="M344.159 393.334L340.1 376.392H343.287C344.424 381.552 345.503 386.92 345.869 389.936H345.894C346.433 387.078 348.16 380.488 349.106 376.392H351.845C352.7 379.849 354.477 386.911 354.95 389.786H354.975C355.506 386.247 357.232 379.325 357.847 376.392H360.777L356.436 393.334H353.298C352.435 389.504 350.857 383.413 350.343 380.588H350.318C349.762 383.53 348.143 389.811 347.271 393.334H344.15H344.159Z"
                        fill="#AFD3FC" />
                <path
                        d="M373.37 385.74H365.924V390.858H374.133L373.76 393.334H363.002V376.392H373.685V378.885H365.916V383.239H373.361V385.74H373.37Z"
                        fill="#AFD3FC" />
                <path
                        d="M376.707 376.392H383.057C386.535 376.392 388.27 378.22 388.27 380.655C388.27 382.823 387.025 383.746 386.087 384.111C387.307 384.593 388.843 385.781 388.843 388.241C388.843 391.498 386.427 393.326 382.908 393.326H376.707V376.384V376.392ZM382.493 383.164C384.485 383.164 385.348 382.458 385.348 380.937C385.348 379.417 384.377 378.694 382.667 378.694H379.637V383.164H382.493ZM379.637 391.049H382.675C384.435 391.049 385.788 390.202 385.788 388.266C385.788 386.488 384.709 385.474 382.435 385.474H379.637V391.049Z"
                        fill="#AFD3FC" />
                <path
                        d="M393.806 388.407C394.08 390.169 395.242 391.191 397.118 391.191C398.994 391.191 399.982 390.285 399.982 388.847C399.982 387.194 399.069 386.504 396.446 385.732C392.652 384.643 391.308 383.314 391.308 380.879C391.308 377.896 393.657 376.168 396.853 376.168C400.771 376.168 402.431 378.295 402.622 380.904H399.683C399.459 379.491 398.72 378.486 396.819 378.486C395.143 378.486 394.313 379.284 394.313 380.588C394.313 381.968 395.176 382.416 397.683 383.156C401.949 384.419 403.045 386.105 403.045 388.498C403.045 391.282 401.169 393.534 396.994 393.534C393.358 393.534 391.075 391.664 390.859 388.399H393.814L393.806 388.407Z"
                        fill="#AFD3FC" />
                <path d="M408.912 376.392V393.334H405.924V376.392H408.912Z" fill="#AFD3FC" />
                <path
                        d="M415.943 378.893H411.229V376.392H423.671V378.893H418.948V393.334H415.935V378.893H415.943Z"
                        fill="#AFD3FC" />
                <path
                        d="M436.272 385.74H428.826V390.858H437.036L436.662 393.334H425.904V376.392H436.587V378.885H428.818V383.239H436.264V385.74H436.272Z"
                        fill="#AFD3FC" />
                <path
                        d="M445.719 376.392H451.479C456.319 376.392 459.307 379.4 459.307 384.485C459.307 390.002 456.369 393.334 451.297 393.334H445.727V376.392H445.719ZM448.724 390.958H451.239C454.534 390.958 456.211 388.573 456.211 384.552C456.211 381.07 454.493 378.818 451.264 378.818H448.724V390.958Z"
                        fill="#AFD3FC" />
                <path
                        d="M472.813 385.74H465.367V390.858H473.577L473.203 393.334H462.445V376.392H473.128V378.885H465.359V383.239H472.805V385.74H472.813Z"
                        fill="#AFD3FC" />
                <path
                        d="M480.449 393.334L474.945 376.392H478.149L480.54 384.311C481.229 386.596 481.935 388.922 482.267 390.501H482.316C482.665 389.039 483.429 386.579 484.126 384.369L486.641 376.384H489.704L484.018 393.326H480.449V393.334Z"
                        fill="#AFD3FC" />
                <path
                        d="M502.106 385.74H494.66V390.858H502.87L502.496 393.334H491.738V376.392H502.421V378.885H494.652V383.239H502.098V385.74H502.106Z"
                        fill="#AFD3FC" />
                <path
                        d="M505.443 376.392H508.432V390.858H516.193L515.844 393.334H505.452V376.392H505.443Z"
                        fill="#AFD3FC" />
                <path
                        d="M531.997 384.776C531.997 389.645 529.673 393.584 524.477 393.584C519.28 393.584 517.172 389.662 517.172 384.759C517.172 380.497 519.463 376.168 524.701 376.168C529.665 376.168 531.997 380.106 531.997 384.776ZM520.26 384.751C520.26 388.332 521.696 391.166 524.609 391.166C527.739 391.166 528.942 388.474 528.942 384.784C528.942 381.411 527.731 378.577 524.576 378.577C521.422 378.577 520.268 381.319 520.268 384.751H520.26Z"
                        fill="#AFD3FC" />
                <path
                        d="M535.135 376.392H541.178C544.349 376.392 546.98 378.029 546.98 381.328C546.98 384.626 544.474 386.538 540.888 386.538H538.124V393.334H535.127V376.392H535.135ZM538.132 384.153H540.722C542.681 384.153 543.942 383.447 543.942 381.394C543.942 379.575 542.656 378.793 540.796 378.793H538.132V384.153Z"
                        fill="#AFD3FC" />
                <path
                        d="M563.316 386.704C563.316 383.737 563.358 380.364 563.433 378.503H563.325C562.553 381.851 560.527 388.515 558.958 393.334H556.327C555.157 389.288 553.082 381.835 552.343 378.461H552.227C552.368 380.43 552.434 384.136 552.434 387.053V393.334H549.67V376.392H554.144C555.547 380.713 557.315 386.961 557.83 389.454H557.863C558.22 387.452 560.419 380.754 561.889 376.392H566.205V393.334H563.316V386.704Z"
                        fill="#AFD3FC" />
                <path
                        d="M580.54 385.74H573.094V390.858H581.303L580.93 393.334H570.172V376.392H580.855V378.885H573.085V383.239H580.531V385.74H580.54Z"
                        fill="#AFD3FC" />
                <path
                        d="M583.877 393.334V376.392H587.729C593.349 387.294 594.195 388.955 594.469 389.737H594.511C594.345 387.643 594.32 384.884 594.32 382.125V376.392H597.067V393.334H593.407C587.389 381.411 586.808 380.156 586.517 379.5H586.492C586.617 381.66 586.617 384.552 586.617 387.584V393.334H583.869H583.877Z"
                        fill="#AFD3FC" />
                <path
                        d="M604.09 378.893H599.375V376.392H611.818V378.893H607.095V393.334H604.082V378.893H604.09Z"
                        fill="#AFD3FC" />
        </g>
        <path
                d="M226.178 405.258C226.452 407.036 227.623 408.058 229.515 408.058C231.408 408.058 232.396 407.144 232.396 405.707C232.396 404.045 231.474 403.355 228.834 402.574C225.024 401.486 223.671 400.148 223.671 397.688C223.671 394.68 226.029 392.952 229.25 392.952C233.192 392.952 234.861 395.088 235.052 397.713H232.097C231.873 396.292 231.125 395.287 229.216 395.287C227.531 395.287 226.693 396.085 226.693 397.398C226.693 398.785 227.556 399.234 230.08 399.982C234.371 401.253 235.475 402.948 235.475 405.358C235.475 408.158 233.591 410.426 229.391 410.426C225.738 410.426 223.439 408.54 223.215 405.266H226.187L226.178 405.258Z"
                fill="#AFD3FC" />
        <path
                d="M241.253 395.694H236.514V393.177H249.023V395.694H244.275V410.219H241.245V395.694H241.253Z"
                fill="#AFD3FC" />
        <path
                d="M254.227 402.931V410.21H251.271V393.177H257.896C261.033 393.177 263.266 394.739 263.266 397.713C263.266 400.081 261.963 401.195 260.568 401.693C262.287 402.317 262.942 403.679 262.942 405.865V406.263C262.942 407.792 263.009 409.246 263.175 410.219H260.261C260.021 409.512 259.954 408.224 259.954 406.23V405.815C259.954 403.704 259.19 402.931 256.767 402.931H254.227ZM254.227 400.522H257.007C258.85 400.522 260.27 400.015 260.27 397.954C260.27 396.292 259.099 395.586 257.497 395.586H254.235V400.513L254.227 400.522Z"
                fill="#AFD3FC" />
        <path
                d="M269.326 405.773L267.973 410.21H265.01C265.566 408.557 269.708 395.046 270.331 393.177H274.199L279.777 410.21H276.606L275.17 405.773H269.334H269.326ZM274.539 403.264C273.352 399.491 272.555 397.015 272.19 395.511H272.157C271.725 397.447 270.912 400.09 269.924 403.264H274.539Z"
                fill="#AFD3FC" />
        <path
                d="M283.164 395.694H278.424V393.177H290.933V395.694H286.185V410.219H283.155V395.694H283.164Z"
                fill="#AFD3FC" />
        <path
                d="M303.6 402.574H296.112V407.726H304.363L303.99 410.219H293.174V393.185H303.923V395.694H296.112V400.073H303.6V402.591V402.574Z"
                fill="#AFD3FC" />
        <path
                d="M320.334 410.21H318.093C317.985 409.678 317.902 408.914 317.861 408.066C316.981 409.853 315.288 410.459 313.046 410.459C308.597 410.459 306.314 406.712 306.314 401.785C306.314 396.857 309.012 392.944 313.943 392.944C317.844 392.944 319.919 395.096 320.368 397.996H317.421C317.039 396.658 316.159 395.387 313.785 395.387C310.631 395.387 309.419 398.32 309.419 401.801C309.419 405.283 310.656 408.033 313.694 408.033C316.732 408.033 317.363 405.989 317.363 403.48V403.388H313.511V400.813H320.334V410.21Z"
                fill="#AFD3FC" />
        <path
                d="M326.826 410.21V403.688C326.826 403.505 326.785 403.322 326.685 403.172L321.248 393.177H324.643C325.913 395.777 327.731 399.35 328.47 400.854C329.657 398.42 331.101 395.619 332.305 393.177H335.451L329.956 403.139C329.864 403.28 329.831 403.405 329.831 403.621V410.21H326.826Z"
                fill="#AFD3FC" />
        <g opacity="0.5">
                <path
                        d="M26.7534 390.119C26.7534 393.675 25.0601 396.542 21.2666 396.542C17.4731 396.542 15.9375 393.683 15.9375 390.102C15.9375 386.994 17.606 383.837 21.4326 383.837C25.0518 383.837 26.7617 386.712 26.7617 390.119H26.7534ZM18.187 390.102C18.187 392.719 19.2329 394.78 21.3579 394.78C23.6406 394.78 24.5122 392.819 24.5122 390.119C24.5122 387.659 23.6323 385.59 21.3247 385.59C19.0171 385.59 18.1787 387.593 18.1787 390.094L18.187 390.102Z"
                        fill="#AFD3FC" />
                <path
                        d="M29.0352 396.367V384.003H31.8408C35.9414 391.963 36.5557 393.168 36.7549 393.741H36.7881C36.6636 392.213 36.647 390.202 36.647 388.191V384.011H38.6558V396.375H35.9829C31.5918 387.676 31.1685 386.762 30.9609 386.28H30.9443C31.0356 387.85 31.0356 389.969 31.0356 392.179V396.375H29.0352V396.367Z"
                        fill="#AFD3FC" />
                <path
                        d="M41.563 384.003H43.7378V394.556H49.3989L49.1416 396.359H41.5547V383.995L41.563 384.003Z"
                        fill="#AFD3FC" />
                <path d="M53.2334 384.003V396.367H51.0586V384.003H53.2334Z" fill="#AFD3FC" />
                <path
                        d="M56.1387 396.367V384.003H58.9443C63.0449 391.963 63.6592 393.168 63.8584 393.741H63.8916C63.7671 392.213 63.7505 390.202 63.7505 388.191V384.011H65.7593V396.375H63.0864C58.6953 387.676 58.272 386.762 58.0645 386.28H58.0479C58.1392 387.85 58.1392 389.969 58.1392 392.179V396.375H56.1387V396.367Z"
                        fill="#AFD3FC" />
                <path
                        d="M76.2183 390.825H70.7896V394.556H76.7744L76.5005 396.359H68.6562V383.995H76.4507V385.815H70.7812V388.989H76.21V390.817L76.2183 390.825Z"
                        fill="#AFD3FC" />
                <path
                        d="M93.0601 391.531C93.0601 389.371 93.0933 386.903 93.1431 385.549H93.0601C92.4956 387.992 91.0181 392.852 89.8809 396.367H87.9634C87.1084 393.409 85.5977 387.975 85.0581 385.515H84.9751C85.0747 386.953 85.1245 389.662 85.1245 391.789V396.367H83.1074V384.003H86.3696C87.3906 387.152 88.6855 391.714 89.0591 393.534H89.084C89.3413 392.071 90.9517 387.186 92.0225 384.003H95.1685V396.367H93.0601V391.531Z"
                        fill="#AFD3FC" />
                <path
                        d="M99.833 393.143L98.8452 396.359H96.6953C97.1021 395.162 100.099 385.358 100.555 383.995H103.361L107.403 396.359H105.104L104.066 393.143H99.833ZM103.618 391.324C102.755 388.59 102.174 386.795 101.908 385.698H101.883C101.568 387.102 100.979 389.022 100.265 391.324H103.61H103.618Z"
                        fill="#AFD3FC" />
                <path
                        d="M111.164 391.083V396.367H109.014V384.003H113.82C116.103 384.003 117.721 385.133 117.721 387.294C117.721 389.014 116.775 389.82 115.762 390.185C117.007 390.642 117.489 391.623 117.489 393.21V393.501C117.489 394.614 117.539 395.661 117.655 396.367H115.538C115.364 395.852 115.314 394.921 115.314 393.476V393.176C115.314 391.648 114.758 391.083 112.998 391.083H111.155H111.164ZM111.164 389.329H113.181C114.517 389.329 115.546 388.964 115.546 387.468C115.546 386.263 114.7 385.756 113.529 385.756H111.164V389.329Z"
                        fill="#AFD3FC" />
                <path
                        d="M120.037 384.003H122.179V389.878C123.515 388.233 125.59 385.723 126.977 384.003H129.583L125.233 389.03L129.849 396.367H127.242L123.739 390.476L122.195 392.138V396.367H120.045V384.003H120.037Z"
                        fill="#AFD3FC" />
                <path
                        d="M138.589 390.825H133.161V394.556H139.146L138.872 396.359H131.027V383.995H138.822V385.815H133.152V388.989H138.581V390.817L138.589 390.825Z"
                        fill="#AFD3FC" />
                <path
                        d="M143.636 385.831H140.199V384.003H149.28V385.831H145.835V396.367H143.636V385.831Z"
                        fill="#AFD3FC" />
                <path d="M153.083 384.003V396.367H150.908V384.003H153.083Z" fill="#AFD3FC" />
                <path
                        d="M155.996 396.367V384.003H158.802C162.902 391.963 163.517 393.168 163.716 393.741H163.749C163.625 392.213 163.608 390.202 163.608 388.191V384.011H165.617V396.375H162.944C158.553 387.676 158.129 386.762 157.922 386.28H157.905C157.997 387.85 157.997 389.969 157.997 392.179V396.375H155.996V396.367Z"
                        fill="#AFD3FC" />
                <path
                        d="M178.102 396.367H176.475C176.392 395.977 176.334 395.428 176.301 394.813C175.662 396.11 174.433 396.55 172.814 396.55C169.585 396.55 167.934 393.833 167.934 390.26C167.934 386.687 169.893 383.845 173.462 383.845C176.292 383.845 177.795 385.407 178.119 387.51H175.977C175.695 386.537 175.056 385.615 173.337 385.615C171.055 385.615 170.167 387.742 170.167 390.268C170.167 392.794 171.063 394.788 173.271 394.788C175.479 394.788 175.936 393.309 175.936 391.481V391.415H173.146V389.545H178.102V396.367Z"
                        fill="#AFD3FC" />
        </g>
        <g opacity="0.5">
                <path
                        d="M526.103 348.548L523.057 335.81H525.456C526.311 339.682 527.116 343.721 527.398 345.989H527.415C527.821 343.837 529.116 338.893 529.83 335.81H531.889C532.528 338.411 533.873 343.721 534.221 345.881H534.238C534.636 343.222 535.931 338.021 536.396 335.81H538.596L535.333 348.548H532.976C532.329 345.673 531.142 341.095 530.751 338.968H530.735C530.32 341.178 529.1 345.898 528.444 348.548H526.095H526.103Z"
                        fill="#AFD3FC" />
                <path
                        d="M548.06 342.84H542.465V346.687H548.632L548.358 348.548H540.273V335.81H548.309V337.68H542.465V340.954H548.06V342.832V342.84Z"
                        fill="#AFD3FC" />
                <path
                        d="M550.574 335.81H555.347C557.962 335.81 559.265 337.181 559.265 339.018C559.265 340.646 558.335 341.344 557.622 341.618C558.535 341.984 559.688 342.873 559.688 344.726C559.688 347.177 557.871 348.548 555.231 348.548H550.574V335.81ZM554.924 340.904C556.426 340.904 557.074 340.372 557.074 339.234C557.074 338.095 556.343 337.547 555.057 337.547H552.782V340.904H554.932H554.924ZM552.774 346.828H555.057C556.376 346.828 557.397 346.197 557.397 344.734C557.397 343.397 556.584 342.632 554.874 342.632H552.774V346.828Z"
                        fill="#AFD3FC" />
                <path
                        d="M524.16 352.628H528.493C532.129 352.628 534.378 354.888 534.378 358.71C534.378 362.856 532.17 365.358 528.36 365.358H524.168V352.62L524.16 352.628ZM526.418 363.579H528.311C530.784 363.579 532.046 361.793 532.046 358.76C532.046 356.143 530.759 354.448 528.327 354.448H526.418V363.579Z"
                        fill="#AFD3FC" />
                <path
                        d="M544.522 359.657H538.928V363.505H545.095L544.821 365.366H536.736V352.628H544.771V354.497H538.928V357.771H544.522V359.649V359.657Z"
                        fill="#AFD3FC" />
                <path
                        d="M548.649 361.66C548.856 362.99 549.728 363.754 551.139 363.754C552.55 363.754 553.289 363.073 553.289 361.992C553.289 360.746 552.6 360.231 550.633 359.649C547.786 358.835 546.773 357.838 546.773 356.002C546.773 353.758 548.533 352.462 550.94 352.462C553.887 352.462 555.132 354.057 555.273 356.018H553.065C552.891 354.955 552.343 354.207 550.907 354.207C549.645 354.207 549.022 354.805 549.022 355.786C549.022 356.816 549.67 357.157 551.554 357.713C554.767 358.661 555.58 359.932 555.58 361.735C555.58 363.829 554.169 365.524 551.031 365.524C548.3 365.524 546.582 364.12 546.416 361.66H548.641H548.649Z"
                        fill="#AFD3FC" />
                <path d="M560.003 352.628V365.366H557.762V352.628H560.003Z" fill="#AFD3FC" />
                <path
                        d="M572.87 365.366H571.193C571.11 364.967 571.052 364.394 571.019 363.762C570.363 365.1 569.093 365.549 567.425 365.549C564.096 365.549 562.395 362.749 562.395 359.068C562.395 355.387 564.412 352.462 568.097 352.462C571.011 352.462 572.563 354.074 572.903 356.234H570.695C570.405 355.237 569.749 354.282 567.973 354.282C565.615 354.282 564.71 356.475 564.71 359.076C564.71 361.677 565.632 363.729 567.906 363.729C570.181 363.729 570.646 362.2 570.646 360.322V360.256H567.765V358.328H572.87V365.358V365.366Z"
                        fill="#AFD3FC" />
                <path
                        d="M575.534 365.366V352.628H578.422C582.647 360.829 583.278 362.067 583.486 362.657H583.519C583.394 361.078 583.378 359.009 583.378 356.932V352.62H585.445V365.358H582.689C578.165 356.392 577.725 355.453 577.509 354.954H577.493C577.584 356.575 577.584 358.752 577.584 361.028V365.349H575.525L575.534 365.366Z"
                        fill="#AFD3FC" />
        </g>
</svg>
