<svg width="85" height="85" viewBox="0 0 85 85" fill="none" xmlns="http://www.w3.org/2000/svg">
<circle cx="42.5" cy="42.5" r="42.5" fill="#0AA5A5"/>
<path d="M41.964 54.2393C40.9818 54.2367 40.0039 54.1114 39.053 53.8667C36.5121 53.2024 34.2813 51.6811 32.7405 49.5621C31.1999 47.443 30.445 44.8574 30.6044 42.246C30.7639 39.6348 31.8279 37.1593 33.615 35.2418C35.4021 33.3242 37.8018 32.0834 40.4048 31.7306C43.0078 31.378 45.653 31.9353 47.8896 33.3076C50.1261 34.68 51.8155 36.7823 52.6698 39.2563C53.5239 41.7305 53.4901 44.4229 52.5739 46.8749C51.6578 49.3267 49.9161 51.3864 47.6457 52.7025C45.9213 53.7055 43.9609 54.2358 41.964 54.2393ZM41.964 36.7755C40.6017 36.7794 39.2787 37.2311 38.2005 38.0607C37.1224 38.8901 36.3496 40.0509 36.0018 41.3627C35.6916 42.5393 35.7382 43.781 36.1356 44.9312C36.5331 46.0815 37.2638 47.0887 38.2353 47.826C39.207 48.5632 40.3761 48.9974 41.5951 49.0738C42.8142 49.1501 44.0287 48.8653 45.0855 48.2551C46.26 47.573 47.1763 46.5245 47.6922 45.2717C48.2082 44.0188 48.2952 42.6317 47.9399 41.3247C47.5845 40.0177 46.8064 38.8637 45.7262 38.0414C44.646 37.219 43.3237 36.7741 41.964 36.7755Z" fill="#F8F9FD"/>
<path d="M45.6343 73.357C38.9097 74.2117 32.0908 72.8082 26.2573 69.3688C20.4237 65.9296 15.9086 60.6507 13.4268 54.3682C11.7854 54.9479 10.0952 55.3804 8.37646 55.6604C9.07126 57.4977 9.91988 59.2736 10.9133 60.9694C14.0895 66.3729 18.6293 70.8553 24.0821 73.9718C29.5351 77.0884 35.7115 78.7306 41.9986 78.7357C42.7585 78.7357 43.5067 78.7357 44.2665 78.6543C44.4888 76.8367 44.9488 75.0558 45.6343 73.357Z" fill="#F8F9FD"/>
<path d="M72.9709 24.9363C69.2449 18.5507 63.6234 13.4719 56.8801 10.3985C50.1367 7.32518 42.6027 6.40836 35.3146 7.7742C28.0266 9.14003 21.3426 12.7214 16.1823 18.0256C11.0219 23.3298 7.63875 30.0962 6.49829 37.3938C9.41779 36.1611 11.8724 34.0425 13.5126 31.3396C15.8046 25.7094 19.7285 20.8865 24.7839 17.4859C29.8392 14.0853 35.7969 12.2611 41.8973 12.246C48.6787 12.2187 55.279 14.4232 60.6726 18.5167C66.0664 22.6104 69.9509 28.3637 71.7226 34.8826C73.4944 41.4015 73.0541 48.3208 70.4702 54.5647C67.8862 60.8088 63.3034 66.0279 57.4342 69.4105C56.9197 69.7133 56.3819 69.9695 55.8442 70.2371C53.6163 72.1304 52.0318 74.6643 51.3083 77.4904C54.3655 76.6684 57.2985 75.4428 60.0294 73.8463C68.251 69.0629 74.231 61.2264 76.6574 52.0568C79.0836 42.8873 77.7578 33.1335 72.9709 24.9363Z" fill="#F8F9FD"/>
<path d="M24.407 36.1577L24.8511 35.3194C26.5754 31.5115 29.5349 28.391 33.2542 26.4596C36.9736 24.5282 41.2368 23.8977 45.3592 24.6696C49.4816 25.4416 53.2238 27.5711 55.9847 30.716C58.7455 33.8609 60.3648 37.8387 60.5825 42.0104C60.8 46.1822 59.6033 50.3057 57.1846 53.7186C54.7657 57.1315 51.2652 59.6355 47.2454 60.8287C43.2254 62.0219 38.9196 61.8349 35.0194 60.2976C31.1191 58.7604 27.8508 55.9622 25.7397 52.3525C24.9355 50.9616 24.3109 49.475 23.8809 47.9283C22.564 49.1882 21.1315 50.3226 19.6021 51.3162C21.5507 56.4297 25.2181 60.7126 29.9802 63.4367C34.7424 66.1606 40.3051 67.1572 45.722 66.2569C51.139 65.3566 56.0753 62.6152 59.6911 58.4988C63.307 54.3824 65.3792 49.1454 65.5549 43.6791C65.7306 38.2127 63.999 32.8544 60.6548 28.5162C57.3108 24.1781 52.5606 21.1277 47.2126 19.8842C41.8646 18.6408 36.2492 19.2811 31.3218 21.6962C26.3946 24.1112 22.4596 28.1519 20.1867 33.1308L19.8242 33.8059C18.406 36.4173 16.4744 38.7176 14.1445 40.5698C11.8147 42.422 9.13437 43.7881 6.26318 44.5869C6.32846 46.1093 6.49247 47.6261 6.75419 49.1274C9.13184 48.8106 11.4464 48.1313 13.6166 47.1133C18.1738 44.5415 21.913 40.745 24.407 36.1577Z" fill="#F8F9FD"/>
</svg>
