<svg xmlns="http://www.w3.org/2000/svg" width="670" height="432" viewBox="0 0 670 432" fill="none">
    <path
        d="M112.053 353.611C127.133 353.611 141.952 350.489 155.731 344.634C176.14 396.154 226.317 431.021 282.733 431.021C321.731 431.021 357.869 414.758 383.867 386.136C400.246 396.544 419.355 402.139 438.854 402.139C476.422 402.139 510.48 381.843 528.549 349.708C538.168 352.31 547.918 353.611 557.927 353.611C619.674 353.611 669.981 303.263 669.981 241.465C669.981 183.961 626.433 136.345 570.536 130.1C564.817 62.4479 508.01 9.23717 438.984 9.23717C402.066 9.23717 367.098 24.7191 342.27 51.3896C318.481 19.385 280.913 0 240.226 0C170.16 0 113.093 57.114 113.093 127.238C113.093 127.888 113.093 128.669 113.093 129.319C50.567 128.539 0 179.278 0 241.465C0 303.263 50.307 353.611 112.053 353.611Z"
        fill="#1C2D38" />
</svg>
