<svg width="1458" height="752" viewBox="0 0 1458 752" fill="none" xmlns="http://www.w3.org/2000/svg">
  <path
    data-hero-cloud-stage-zero="true"
    d="M1033.25 457.745C1034.68 457.785 1036.09 457.824 1037.45 457.824C1050.95 457.824 1065.27 458.246 1080.25 458.687C1180.71 461.647 1310.29 465.464 1415.32 348.4C1532.69 212.737 1380.5 97.8529 1274.12 100.003C1201.35 -40.4413 1013.53 -10.2546 954.912 53.1196C912.969 19.2844 858.926 10.3179 824.214 10.5354C789.502 10.7529 725.474 19.7532 676.251 69.5684C628.964 51.4994 592.118 53.7036 553.645 62.7064C487.973 78.3821 436.525 122.536 410.942 172.952C382.111 164.764 325.727 156.806 260.298 188.084C211.11 211.598 142.326 270.393 144.025 355.395C86.9108 384.907 58.05 429.53 43.4938 464.477L0.866577 473.532C0.866577 473.532 -14.6927 751.399 86.0403 751.399C102.237 751.399 544.249 520.076 560.05 516.698C603.899 582.49 688.831 624.314 781.466 624.314C903.53 624.314 1006.63 553.696 1028.76 457.663C1030.08 457.663 1031.4 457.695 1032.7 457.73L1033.25 457.745Z"
    fill="white" />

  <path
    data-hero-cloud-stage-one="true"
    d="M773.947 88.558C747.423 35.4485 680.065 -0.407211 605.09 0.00354916C552.664 0.290773 503.753 18.0217 469.969 48.0814C436.525 24.0185 392.64 10.6928 346.227 10.947C272.943 11.3485 207.626 46.1993 180.767 97.4364C166.269 93.6192 151.034 91.8265 135.814 91.9099C60.4629 92.3227 -0.43752 139.705 0.00197263 197.576C0.335154 241.448 36.1444 280.075 88.6866 295.085C94.3114 367.648 173.297 425.233 269.13 424.708C284.538 424.623 299.934 422.951 314.944 419.838C357.107 478.635 438.193 515.715 526.321 515.232C642.447 514.596 740.054 450.704 760.445 364.432C763.263 364.416 766.083 364.545 768.714 364.531C867.741 363.988 947.883 301.635 947.305 225.58C946.728 149.526 869.614 91.0649 773.76 88.7036L773.947 88.558Z"
    fill="white" style="display:none" />
</svg>
