<svg xmlns="http://www.w3.org/2000/svg" width="1766.016" height="632" viewBox="0 0 1766.016 632" fill="none">
  <rect x="0" y="316" width="1766.016" height="316" fill="#5495D6"/>
  <g transform="translate(0 0)">
    <path id="Vector" d="M690.203 231.413C690.203 229.618 690.203 227.972 690.203 226.327C690.203 167.389 643.151 119.222 584.71 116.978C566.428 48.4665 504.091 0 432.014 0C359.937 0 303.444 43.9788 282.165 107.554C264.633 96.185 244.104 90.052 222.675 90.052C165.133 90.052 117.781 134.629 113.435 191.024C49.7498 198.354 0 252.505 0 318.024C0 388.48 57.3921 445.922 128.121 445.922C141.457 445.922 154.344 443.827 166.931 439.938C197.501 493.939 255.342 528.195 317.979 528.195C365.181 528.195 409.836 509.197 442.353 475.69C463.632 490.499 488.956 498.427 515.18 498.427C559.535 498.427 599.694 476.138 623.071 439.34C634.909 443.678 647.346 445.772 660.233 445.772C720.622 445.772 769.773 396.707 769.773 336.423C769.773 287.358 736.357 244.427 690.053 231.263L690.203 231.413Z" fill="var(--fill-0, #5495D6)"/>
  </g>
  <g transform="translate(513 55)">
    <path id="Vector" d="M686.013 182.239C686.013 182.239 686.013 180.975 686.013 180.343C686.013 121.229 637.794 73.0222 578.313 73.0222C565.623 73.0222 553.093 75.2349 541.197 79.6605C511.218 30.1888 458.082 0 399.235 0C345.306 0 295.818 25.4471 264.571 68.7546C255.688 66.858 246.647 65.9096 237.448 65.9096C171.305 65.9096 116.265 114.433 107.224 178.446C44.4121 193.935 0 249.571 0 315.165C0 392.929 63.446 456.151 141.485 456.151C164.643 456.151 187.166 450.619 207.469 439.871C234.117 470.06 272.819 487.763 313.583 487.763C338.962 487.763 363.389 481.124 385.119 468.322C417.001 501.355 460.778 520.006 507.253 520.006C560.548 520.006 610.353 495.191 642.394 453.306C651.593 455.203 660.793 456.151 669.992 456.151C746.128 456.151 807.988 394.509 807.988 318.642C807.988 248.149 754.535 189.984 685.854 182.081L686.013 182.239Z" fill="var(--fill-0, #5495D6)"/>
  </g>
  <g transform="translate(1029 33)">
    <path id="Vector" d="M134.096 429.621C154.422 483.415 206.628 520.006 264.975 520.006C305.774 520.006 343.941 502.366 370.409 472.189C396.293 496.681 430.365 510.384 466.485 510.384C523.516 510.384 574.551 475.542 595.755 423.935C607.015 427.872 618.86 429.767 630.705 429.767C689.344 429.767 737.016 382.242 737.016 323.783C737.016 279.465 709.378 240.249 668.579 224.797C664.631 151.468 603.505 92.8634 528.926 92.8634C516.935 92.8634 504.944 94.4671 493.245 97.5285C460.782 37.9035 397.901 0 329.318 0C238.945 0 162.612 63.9985 146.233 151.031C144.04 151.031 141.846 150.885 139.799 150.885C62.7341 150.885 0 213.426 0 290.253C0 367.08 59.6632 426.559 134.242 429.475L134.096 429.621Z" fill="var(--fill-0, #5495D6)"/>
  </g>
</svg>
