<svg width="1440" height="555" viewBox="0 0 1440 555" fill="none" xmlns="http://www.w3.org/2000/svg">
<path d="M11.4687 371.28C31.1483 371.28 50.3066 366.482 67.3796 357.145C87.9715 390.083 124.594 410.572 164.083 410.572C200.184 410.572 233.549 393.714 254.922 365.704C275.645 384.766 302.753 395.529 331.425 395.529C363.225 395.529 392.81 382.562 414.054 359.609C428.39 367.26 444.29 371.15 460.581 371.15C515.189 371.15 559.631 326.931 559.631 272.596C559.631 230.581 533.174 193.883 494.206 180.008C492.251 131.509 451.979 92.7358 402.845 92.7358C394.244 92.7358 385.642 93.9028 377.431 96.3667C355.797 40.7357 301.319 3 240.456 3C190.019 3 143.622 28.5461 116.774 70.4315C105.957 66.6709 94.7486 64.7257 83.2797 64.7257C37.0131 64.7257 -2.73714 95.5887 -14.597 139.16C-67.9014 150.96 -107 198.681 -107 253.793C-107 318.631 -53.9563 371.28 11.0777 371.28H11.4687Z" fill="#1C2D38"/>
<path d="M1030.13 356.103C1046.98 400.691 1090.24 431.021 1138.6 431.021C1172.41 431.021 1204.04 416.4 1225.97 391.387C1247.43 411.687 1275.66 423.046 1305.6 423.046C1352.86 423.046 1395.16 394.166 1412.73 351.39C1422.06 354.653 1431.88 356.224 1441.69 356.224C1490.29 356.224 1529.8 316.831 1529.8 268.376C1529.8 231.642 1506.89 199.137 1473.08 186.329C1469.81 125.548 1419.15 76.9723 1357.35 76.9723C1347.41 76.9723 1337.47 78.3015 1327.77 80.8391C1300.87 31.4173 1248.76 0 1191.92 0C1117.02 0 1053.76 53.0469 1040.19 125.186C1038.37 125.186 1036.55 125.065 1034.86 125.065C970.991 125.065 919 176.903 919 240.584C919 304.264 968.446 353.565 1030.25 355.982L1030.13 356.103Z" fill="#1C2D38"/>
<path d="M497.04 477.528C512.119 477.528 526.938 474.405 540.717 468.551C561.126 520.07 611.303 554.937 667.72 554.937C706.717 554.937 742.855 538.674 768.854 510.053C785.233 520.461 804.342 526.055 823.84 526.055C861.408 526.055 895.466 505.759 913.535 473.625C923.155 476.227 932.904 477.528 942.913 477.528C1004.66 477.528 1054.97 427.179 1054.97 365.382C1054.97 307.878 1011.42 260.261 955.523 254.016C949.803 186.364 892.996 133.153 823.971 133.153C787.053 133.153 752.085 148.635 727.256 175.306C703.468 143.301 665.9 123.916 625.212 123.916C555.146 123.916 498.08 181.03 498.08 251.154C498.08 251.805 498.08 252.585 498.08 253.235C435.553 252.455 384.986 303.194 384.986 365.382C384.986 427.179 435.293 477.528 497.04 477.528Z" fill="#1C2D38"/>
</svg>
