<svg xmlns="http://www.w3.org/2000/svg" width="1770.345" height="604" viewBox="0 0 1770.345 604" fill="none">
  <rect x="0" y="234" width="1770.345" height="370" fill="#80BFFF"/>
  <g transform="translate(447 0)">
    <path id="Vector" d="M96.3669 362.268C103.418 414.964 148.663 455.624 203.31 455.624C229.458 455.624 254.431 446.23 273.969 429.35C300.852 458.266 338.899 475 378.562 475C427.333 475 471.843 450.633 498.138 410.267C512.829 417.607 528.988 421.276 545.734 421.276C587.013 421.276 623.738 398.378 641.954 362.121C704.68 358.158 754.332 305.902 754.332 242.344C754.332 172.914 694.544 116.842 624.326 122.713C614.483 65.907 565.419 23.6326 506.218 23.6326C478.895 23.6326 453.187 32.7333 432.033 49.3202C405.004 18.2015 365.782 0 323.915 0C265.596 0 212.859 36.2562 191.264 89.6863C127.216 80.292 70.2183 125.649 61.1105 186.712C25.12 199.042 0 233.243 0 272.142C0 323.81 43.9233 365.644 96.0728 362.121L96.3669 362.268Z" fill="var(--fill-0, #80BFFF)"/>
  </g>
  <g transform="translate(1010 90)">
    <path id="Vector" d="M165.508 434.884C184.299 434.884 202.638 431.727 220.226 425.414C248.638 464.949 294.788 489 343.643 489C377.917 489 410.839 477.425 437.747 456.23C457.74 467.203 480.138 473.066 503.138 473.066C538.465 473.066 572.588 459.086 597.843 434.433C601.601 434.733 605.059 434.884 608.366 434.884C692.097 434.884 760.344 366.788 760.344 282.908C760.344 199.027 692.247 130.931 608.366 130.931C607.163 130.931 605.961 130.931 604.758 130.931C586.118 86.4357 542.974 57.2729 493.818 57.2729C475.478 57.2729 457.74 61.3317 441.354 69.2988C415.048 26.7575 367.996 0 317.336 0C251.945 0 195.122 43.4433 177.233 105.226C173.024 104.925 169.116 104.775 165.057 104.775C74.1103 104.775 0 178.734 0 269.829C0 360.925 73.96 434.734 165.057 434.734L165.508 434.884Z" fill="var(--fill-0, #80BFFF)"/>
  </g>
  <g transform="translate(0 116)">
    <path id="Vector" d="M630.475 188.092C626.628 125.759 574.558 76.2757 510.947 76.2757C494.048 76.2757 477.424 79.8298 461.899 86.8012C432.224 33.627 375.482 0 313.795 0C242.628 0 178.88 44.9726 154.699 110.723C71.7166 100.061 0 165.127 0 246.187C0 317.679 55.5049 376.457 126.26 382.335C139.587 439.884 191.657 482.122 251.97 482.122C285.905 482.122 317.917 468.999 341.96 445.761C371.635 472.69 410.654 488 451.046 488C518.641 488 579.641 445.215 602.997 382.745C656.029 380.011 698.345 336.269 698.345 282.821C698.345 239.352 670.867 201.898 630.475 188.229V188.092Z" fill="var(--fill-0, #80BFFF)"/>
  </g>
</svg>
