<svg width="1450" height="607" viewBox="0 0 1450 607" fill="none" xmlns="http://www.w3.org/2000/svg">
  <path
    d="M557.299 6.75C617.88 -8.28073 679.366 2.40868 722.604 32.6689C764.421 4.34513 822.4 -6.57806 880.34 5.72949C928.061 15.8666 969.936 40.2201 998.518 73.9189C1040.41 48.776 1094.88 40.4482 1148.78 51.8984C1225.87 68.2737 1286.45 122.42 1300.98 186.187L1300.75 186.303C1398.62 210.38 1463.81 291.324 1446.19 374.247C1428.58 457.17 1331.35 507.067 1229.53 485.438C1226.83 484.864 1223.96 484.091 1221.07 483.476C1179.47 572.817 1063.95 620.47 944.547 595.106C853.934 575.858 779.546 517.3 750.325 443.833L749.988 432.962C734.26 436.864 718.107 439.051 701.95 439.584C675.191 513.917 602.773 574.916 512.817 597.235C394.283 626.645 277.179 583.041 232.604 495.291C229.726 496.005 226.887 496.875 224.202 497.541C123.122 522.62 24.2425 476.149 3.85645 393.983C-16.5294 311.818 45.9442 228.79 142.99 201.401L142.76 201.293C155.146 137.147 213.911 81.0239 290.44 62.0361C343.954 48.759 398.695 55.204 441.419 78.8643C468.869 44.2479 509.923 18.5043 557.299 6.75Z"
    fill="white" />
</svg>