<svg xmlns="http://www.w3.org/2000/svg" width="754" height="475" viewBox="0 0 754 475" fill="none">
  <path d="M96.3669 362.268C103.418 414.964 148.663 455.624 203.31 455.624C229.458 455.624 254.431 446.23 273.969 429.35C300.852 458.266 338.899 475 378.562 475C427.333 475 471.843 450.633 498.138 410.267C512.829 417.607 528.988 421.276 545.734 421.276C587.013 421.276 623.738 398.378 641.954 362.121C704.68 358.158 754.332 305.902 754.332 242.344C754.332 172.914 694.544 116.842 624.326 122.713C614.483 65.907 565.419 23.6326 506.218 23.6326C478.895 23.6326 453.187 32.7333 432.033 49.3202C405.004 18.2015 365.782 0 323.915 0C265.596 0 212.859 36.2562 191.264 89.6863C127.216 80.292 70.2183 125.649 61.1105 186.712C25.12 199.042 0 233.243 0 272.142C0 323.81 43.9233 365.644 96.0728 362.121L96.3669 362.268Z" fill="#80BFFF" />
</svg>
