<svg xmlns="http://www.w3.org/2000/svg" width="760" height="489" viewBox="0 0 760 489" fill="none">
  <path d="M165.508 434.884C184.299 434.884 202.638 431.727 220.226 425.414C248.638 464.949 294.788 489 343.643 489C377.917 489 410.839 477.425 437.747 456.23C457.74 467.203 480.138 473.066 503.138 473.066C538.465 473.066 572.588 459.086 597.843 434.433C601.601 434.733 605.059 434.884 608.366 434.884C692.097 434.884 760.344 366.788 760.344 282.908C760.344 199.027 692.247 130.931 608.366 130.931C607.163 130.931 605.961 130.931 604.758 130.931C586.118 86.4357 542.974 57.2729 493.818 57.2729C475.478 57.2729 457.74 61.3317 441.354 69.2988C415.048 26.7575 367.996 0 317.336 0C251.945 0 195.122 43.4433 177.233 105.226C173.024 104.925 169.116 104.775 165.057 104.775C74.1103 104.775 0 178.734 0 269.829C0 360.925 73.96 434.734 165.057 434.734L165.508 434.884Z" fill="#80BFFF" />
</svg>
