<svg xmlns="http://www.w3.org/2000/svg" width="136" height="68" viewBox="0 0 136 68" fill="none">
    <path id="hkw-main-logo-svg"
        d="M133.1 0H2.89982C1.30409 0 0 1.31013 0 2.91191V65.0866C0 66.6899 1.30409 68 2.89982 68H133.102C134.696 68 136 66.6899 136 65.0881V2.91191C136 1.31013 134.696 0 133.1 0ZM122.468 14.5263L112.868 53.1956C112.655 54.0524 111.733 54.7763 110.854 54.7763H105.707C104.824 54.7763 103.889 54.0524 103.664 53.1956L97.515 29.8036C97.3518 29.2279 96.9136 28.8547 96.3998 28.8547C95.8694 28.8547 95.4342 29.243 95.2907 29.849L89.9595 53.1987C89.7645 54.054 88.8609 54.7778 87.986 54.7778H82.6608C81.7783 54.7778 80.8414 54.054 80.6163 53.1972L72.284 21.5726C72.0468 20.669 71.4242 20.1084 70.6626 20.1084C70.1926 20.1084 69.7227 20.3214 69.3011 20.7234L64.0273 25.7569C63.175 26.5714 62.2925 27.4131 63.0662 29.7628L71.3184 53.3407L71.3607 53.4601C71.4106 53.5961 71.4317 53.6988 71.4317 53.7925C71.4317 54.335 70.992 54.7763 70.451 54.7763H64.1708C63.2748 54.7763 62.282 54.0524 62.0039 53.1972L56.6032 36.5795C56.2012 35.2996 55.5228 35.0321 55.0241 35.0321C54.5436 35.0321 54.0494 35.2799 53.5145 35.7907L50.7492 38.4306C49.4451 39.6742 49.0688 40.5567 49.0688 42.3625V53.2727C49.0688 54.1008 48.3979 54.7748 47.5728 54.7748H42.3413C41.5163 54.7748 40.8453 54.1008 40.8453 53.2727V39.0108C40.8453 37.5451 39.6576 36.3528 38.1994 36.3528H24.3334C22.8737 36.3528 21.6875 37.5451 21.6875 39.0108V53.2727C21.6875 54.1008 21.0165 54.7748 20.1915 54.7748H14.9857C14.1606 54.7748 13.4897 54.1008 13.4897 53.2727V14.7273C13.4897 13.8992 14.1606 13.2252 14.9857 13.2252H20.1915C21.0165 13.2252 21.6875 13.8992 21.6875 14.7273V26.9552C21.6875 28.421 22.8752 29.6132 24.3334 29.6132H38.1994C39.6591 29.6132 40.8453 28.421 40.8453 26.9552V14.7273C40.8453 13.8992 41.5163 13.2252 42.3413 13.2252H47.5728C48.3979 13.2252 49.0688 13.8992 49.0688 14.7273V26.9552C49.0688 28.1973 49.7443 28.6371 50.323 28.6371C50.728 28.6371 51.1436 28.4436 51.5621 28.0598L66.3982 14.4734C67.2822 13.6635 68.21 13.2222 68.4397 13.2222H71.4091H76.6572C77.5321 13.2222 78.4372 13.946 78.6337 14.7998L84.3608 40.1744C84.4787 40.6625 84.9033 41.004 85.3944 41.004C85.884 41.004 86.2935 40.67 86.4129 40.1668L92.1838 14.8028C92.3803 13.946 93.2854 13.2237 94.1604 13.2237H98.7692C99.6487 13.2237 100.574 13.9476 100.788 14.8044L107.159 40.1956C107.274 40.6564 107.698 40.9798 108.191 40.9798C108.702 40.9798 109.111 40.6474 109.211 40.1563L114.498 14.8013C114.677 13.946 115.562 13.2237 116.431 13.2237H121.459C121.829 13.2237 122.134 13.3552 122.32 13.594C122.504 13.8342 122.557 14.1652 122.468 14.5263Z"
        fill="var(--fill-0, #1C2D38)" />
</svg>