<svg width="65" height="65" viewBox="0 0 65 65" fill="none" xmlns="http://www.w3.org/2000/svg">
<circle cx="32.5" cy="32.5" r="32.5" fill="#AFD3FC"/>
<path d="M46.3024 31.8543H40.1901L41.4222 20.5794C41.5551 19.3426 40.5766 18.262 39.3324 18.262H26.0446C25.7789 18.262 25.5252 18.31 25.2957 18.3941C24.438 18.7183 23.8461 19.5828 23.9427 20.5554L25.0661 31.8543H18.9054C17.7941 31.8543 17.1901 33.1391 17.8907 33.9796L24.3655 41.7724L31.6013 50.4778C32.1207 51.1021 33.0992 51.1021 33.6186 50.4778L39.6585 43.2013L40.8424 41.7724L44.4059 37.4738L47.3051 33.9796C48.0057 33.1271 47.4017 31.8543 46.3024 31.8543Z" fill="#1C2D38"/>
<path d="M39.6472 43.2013C35.8662 47.7641 29.9109 45.4947 28.1593 43.3574C24.9944 39.491 26.0091 34.8201 26.8668 33.4873C27.7244 32.1545 25.2722 18.3941 25.2722 18.3941C24.4146 18.7183 23.8226 19.5828 23.9193 20.5554L25.0427 31.8543H18.882C17.7707 31.8543 17.1667 33.1391 17.8673 33.9796L24.3421 41.7724L31.5779 50.4778C32.0973 51.1021 33.0758 51.1021 33.5952 50.4778L39.6351 43.2013H39.6472Z" fill="#1C2D38"/>
</svg>
